M48
; DRILL file {KiCad 9.0.0} date 2025-03-20T12:53:02+0100
; FORMAT={-:-/ absolute / metric / decimal}
; #@! TF.CreationDate,2025-03-20T12:53:02+01:00
; #@! TF.GenerationSoftware,Kicad,Pcbnew,9.0.0
; #@! TF.FileFunction,Plated,1,2,PTH
FMAT,2
METRIC
; #@! TA.AperFunction,Plated,PTH,ViaDrill
T1C0.300
; #@! TA.AperFunction,Plated,PTH,ViaDrill
T2C0.400
; #@! TA.AperFunction,Plated,PTH,ViaDrill
T3C0.600
; #@! TA.AperFunction,Plated,PTH,ComponentDrill
T4C0.750
; #@! TA.AperFunction,Plated,PTH,ComponentDrill
T5C0.762
; #@! TA.AperFunction,Plated,PTH,ComponentDrill
T6C1.000
; #@! TA.AperFunction,Plated,PTH,ComponentDrill
T7C1.500
%
G90
G05
T1
X53.7Y-35.4
X53.7Y-36.65
X54.0Y-29.45
X54.0Y-31.65
X54.012Y-40.464
X54.25Y-45.6
X54.3Y-49.925
X54.325Y-47.025
X54.325Y-48.55
X55.2Y-31.65
X55.3Y-29.45
X55.6Y-45.6
X55.65Y-49.925
X55.675Y-47.025
X55.675Y-48.55
X55.8Y-35.4
X55.85Y-36.55
X56.14Y-54.435
X57.2Y-45.575
X57.25Y-49.9
X57.275Y-47.0
X57.275Y-48.525
X58.366Y-40.199
X58.475Y-45.575
X58.525Y-49.9
X58.55Y-47.0
X58.55Y-48.525
X58.65Y-53.776
X58.982Y-34.502
X59.038Y-32.281
X60.652Y-41.484
X61.0Y-33.493
X61.0Y-47.125
X61.669Y-49.086
X61.715Y-48.191
X61.783Y-49.878
X61.786Y-47.272
X62.391Y-39.485
X62.441Y-38.166
X62.577Y-41.647
X63.1Y-40.131
X63.595Y-56.492
X63.75Y-49.9
X63.765Y-44.387
X64.0Y-38.45
X64.0Y-39.25
X64.8Y-38.45
X64.8Y-39.25
X65.312Y-41.288
X66.275Y-44.2
X66.475Y-40.7
X67.675Y-41.525
X68.142Y-40.274
X68.629Y-51.881
X68.641Y-49.317
X68.65Y-54.337
X70.658Y-29.008
X71.35Y-30.38
X71.513Y-31.163
X72.05Y-28.5
X72.395Y-54.307
X72.397Y-49.303
X72.402Y-51.872
X72.5Y-31.25
X72.563Y-35.636
X75.8Y-37.85
X75.8Y-38.85
X75.8Y-39.85
X77.75Y-40.95
X78.65Y-44.45
X78.65Y-46.975
X80.4Y-45.15
X86.4Y-37.8
X86.4Y-38.8
X86.4Y-39.8
X88.35Y-40.9
X89.244Y-47.219
X89.25Y-44.4
X91.0Y-45.75
X97.0Y-37.85
X97.0Y-38.85
X97.0Y-39.85
X98.95Y-40.95
X99.846Y-47.21
X99.85Y-44.45
X101.55Y-46.35
X107.6Y-37.85
X107.6Y-38.85
X107.6Y-39.85
X109.55Y-40.95
X110.45Y-44.45
X110.45Y-47.2
X112.2Y-45.15
X118.2Y-37.8
X118.2Y-38.8
X118.2Y-39.8
X120.15Y-40.9
X121.05Y-44.4
X121.05Y-47.2
X122.8Y-45.75
X128.8Y-37.85
X128.8Y-38.85
X128.8Y-39.85
X130.75Y-40.95
X131.65Y-44.45
X131.65Y-47.25
X133.349Y-46.337
T2
X53.84Y-38.75
X54.5Y-54.15
X55.125Y-57.49
X57.85Y-57.5
X58.1Y-52.925
X59.697Y-53.697
X60.1Y-27.7
X62.05Y-26.15
X64.724Y-36.099
X66.1Y-31.25
X69.3Y-36.575
X69.443Y-29.656
X81.45Y-48.05
X92.05Y-48.05
X98.3Y-59.25
X101.5Y-56.1
X105.6Y-57.05
X107.05Y-57.85
X113.25Y-48.05
X123.85Y-48.05
X133.5Y-55.85
X141.359Y-58.099
X142.8Y-58.4
X144.5Y-59.2
T3
X57.3Y-92.05
X57.3Y-110.05
X57.3Y-122.05
X57.3Y-140.05
X61.5Y-65.25
X61.5Y-69.25
X61.5Y-73.75
X61.5Y-77.75
X61.5Y-82.25
X61.5Y-95.25
X61.5Y-99.25
X61.5Y-103.75
X61.5Y-107.75
X61.5Y-112.25
X61.5Y-125.25
X61.5Y-129.25
X61.5Y-133.75
X61.5Y-137.75
X61.5Y-142.25
X63.5Y-67.25
X63.5Y-71.75
X63.5Y-75.75
X63.5Y-79.75
X63.5Y-84.25
X63.5Y-97.25
X63.5Y-101.75
X63.5Y-105.75
X63.5Y-109.75
X63.5Y-114.25
X63.5Y-127.25
X63.5Y-131.75
X63.5Y-135.75
X63.5Y-139.75
X63.5Y-144.25
X65.5Y-65.25
X65.5Y-69.25
X65.5Y-71.75
X65.5Y-73.75
X65.5Y-75.75
X65.5Y-77.75
X65.5Y-79.75
X65.5Y-82.25
X65.5Y-86.25
X65.5Y-95.25
X65.5Y-99.25
X65.5Y-101.75
X65.5Y-103.75
X65.5Y-105.75
X65.5Y-107.75
X65.5Y-109.75
X65.5Y-112.25
X65.5Y-116.25
X65.5Y-125.25
X65.5Y-129.25
X65.5Y-131.75
X65.5Y-133.75
X65.5Y-135.75
X65.5Y-137.75
X65.5Y-139.75
X65.5Y-142.25
X65.5Y-146.25
X67.5Y-63.25
X67.5Y-67.25
X67.5Y-69.25
X67.5Y-82.25
X67.5Y-84.25
X67.5Y-93.25
X67.5Y-97.25
X67.5Y-99.25
X67.5Y-112.25
X67.5Y-114.25
X67.5Y-123.25
X67.5Y-127.25
X67.5Y-129.25
X67.5Y-142.25
X67.5Y-144.25
X69.5Y-65.25
X69.5Y-67.25
X69.5Y-69.25
X69.5Y-80.75
X69.5Y-82.25
X69.5Y-84.25
X69.5Y-86.25
X69.5Y-95.25
X69.5Y-97.25
X69.5Y-99.25
X69.5Y-110.75
X69.5Y-112.25
X69.5Y-114.25
X69.5Y-116.25
X69.5Y-125.25
X69.5Y-127.25
X69.5Y-129.25
X69.5Y-140.75
X69.5Y-142.25
X69.5Y-144.25
X69.5Y-146.25
X71.5Y-65.25
X71.5Y-67.25
X71.5Y-69.25
X71.5Y-80.75
X71.5Y-82.25
X71.5Y-84.25
X71.5Y-86.25
X71.5Y-95.25
X71.5Y-97.25
X71.5Y-99.25
X71.5Y-110.75
X71.5Y-112.25
X71.5Y-114.25
X71.5Y-116.25
X71.5Y-125.25
X71.5Y-127.25
X71.5Y-129.25
X71.5Y-140.75
X71.5Y-142.25
X71.5Y-144.25
X71.5Y-146.25
X73.5Y-63.25
X73.5Y-67.25
X73.5Y-69.25
X73.5Y-82.25
X73.5Y-84.25
X73.5Y-93.25
X73.5Y-97.25
X73.5Y-99.25
X73.5Y-112.25
X73.5Y-114.25
X73.5Y-123.25
X73.5Y-127.25
X73.5Y-129.25
X73.5Y-142.25
X73.5Y-144.25
X75.5Y-65.25
X75.5Y-69.25
X75.5Y-71.75
X75.5Y-73.75
X75.5Y-75.75
X75.5Y-77.75
X75.5Y-79.75
X75.5Y-82.25
X75.5Y-86.25
X75.5Y-95.25
X75.5Y-99.25
X75.5Y-101.75
X75.5Y-103.75
X75.5Y-105.75
X75.5Y-107.75
X75.5Y-109.75
X75.5Y-112.25
X75.5Y-116.25
X75.5Y-125.25
X75.5Y-129.25
X75.5Y-131.75
X75.5Y-133.75
X75.5Y-135.75
X75.5Y-137.75
X75.5Y-139.75
X75.5Y-142.25
X75.5Y-146.25
X77.5Y-67.25
X77.5Y-71.75
X77.5Y-75.75
X77.5Y-79.75
X77.5Y-84.25
X77.5Y-97.25
X77.5Y-101.75
X77.5Y-105.75
X77.5Y-109.75
X77.5Y-114.25
X77.5Y-127.25
X77.5Y-131.75
X77.5Y-135.75
X77.5Y-139.75
X77.5Y-144.25
X79.5Y-65.25
X79.5Y-69.25
X79.5Y-73.75
X79.5Y-77.75
X79.5Y-82.25
X79.5Y-95.25
X79.5Y-99.25
X79.5Y-103.75
X79.5Y-107.75
X79.5Y-112.25
X79.5Y-125.25
X79.5Y-129.25
X79.5Y-133.75
X79.5Y-137.75
X79.5Y-142.25
X83.7Y-82.25
X83.7Y-110.05
X83.7Y-117.85
X83.7Y-140.05
X83.8Y-62.05
X87.2Y-118.5
X87.3Y-68.25
X87.3Y-88.45
X87.3Y-98.25
X87.3Y-128.25
X91.5Y-68.25
X91.5Y-72.75
X91.5Y-76.75
X91.5Y-81.25
X91.5Y-85.25
X91.5Y-98.25
X91.5Y-102.75
X91.5Y-106.75
X91.5Y-111.25
X91.5Y-115.25
X91.5Y-128.25
X91.5Y-132.75
X91.5Y-136.75
X91.5Y-141.25
X91.5Y-145.25
X93.5Y-66.25
X93.5Y-70.75
X93.5Y-74.75
X93.5Y-78.75
X93.5Y-83.25
X93.5Y-96.25
X93.5Y-100.75
X93.5Y-104.75
X93.5Y-108.75
X93.5Y-113.25
X93.5Y-126.25
X93.5Y-130.75
X93.5Y-134.75
X93.5Y-138.75
X93.5Y-143.25
X95.5Y-74.75
X95.5Y-78.75
X95.5Y-64.25
X95.5Y-68.25
X95.5Y-70.75
X95.5Y-72.75
X95.5Y-76.75
X95.5Y-81.25
X95.5Y-85.25
X95.5Y-104.75
X95.5Y-108.75
X95.5Y-134.75
X95.5Y-138.75
X95.5Y-94.25
X95.5Y-98.25
X95.5Y-100.75
X95.5Y-102.75
X95.5Y-106.75
X95.5Y-111.25
X95.5Y-115.25
X95.5Y-124.25
X95.5Y-128.25
X95.5Y-130.75
X95.5Y-132.75
X95.5Y-136.75
X95.5Y-141.25
X95.5Y-145.25
X97.5Y-68.25
X97.5Y-81.25
X97.5Y-66.25
X97.5Y-83.25
X97.5Y-87.25
X97.5Y-98.25
X97.5Y-111.25
X97.5Y-128.25
X97.5Y-141.25
X97.5Y-96.25
X97.5Y-113.25
X97.5Y-117.25
X97.5Y-126.25
X97.5Y-143.25
X97.5Y-147.25
X99.5Y-66.25
X99.5Y-70.25
X99.5Y-64.25
X99.5Y-81.25
X99.5Y-83.25
X99.5Y-85.25
X99.5Y-96.25
X99.5Y-100.25
X99.5Y-126.25
X99.5Y-130.25
X99.5Y-68.25
X99.5Y-94.25
X99.5Y-111.25
X99.5Y-113.25
X99.5Y-115.25
X99.5Y-124.25
X99.5Y-141.25
X99.5Y-143.25
X99.5Y-145.25
X99.5Y-98.25
X99.5Y-128.25
X101.5Y-68.25
X101.5Y-64.25
X101.5Y-81.25
X101.5Y-83.25
X101.5Y-85.25
X101.5Y-98.25
X101.5Y-128.25
X101.5Y-66.25
X101.5Y-70.25
X101.5Y-94.25
X101.5Y-111.25
X101.5Y-113.25
X101.5Y-115.25
X101.5Y-124.25
X101.5Y-141.25
X101.5Y-143.25
X101.5Y-145.25
X101.5Y-96.25
X101.5Y-100.25
X101.5Y-126.25
X101.5Y-130.25
X103.5Y-66.25
X103.5Y-83.25
X103.5Y-87.25
X103.5Y-68.25
X103.5Y-81.25
X103.5Y-96.25
X103.5Y-113.25
X103.5Y-117.25
X103.5Y-126.25
X103.5Y-143.25
X103.5Y-147.25
X103.5Y-98.25
X103.5Y-111.25
X103.5Y-128.25
X103.5Y-141.25
X105.5Y-64.25
X105.5Y-68.25
X105.5Y-70.75
X105.5Y-72.75
X105.5Y-76.75
X105.5Y-81.25
X105.5Y-85.25
X105.5Y-74.75
X105.5Y-78.75
X105.5Y-94.25
X105.5Y-98.25
X105.5Y-100.75
X105.5Y-102.75
X105.5Y-106.75
X105.5Y-111.25
X105.5Y-115.25
X105.5Y-124.25
X105.5Y-128.25
X105.5Y-130.75
X105.5Y-132.75
X105.5Y-136.75
X105.5Y-141.25
X105.5Y-145.25
X105.5Y-104.75
X105.5Y-108.75
X105.5Y-134.75
X105.5Y-138.75
X107.5Y-66.25
X107.5Y-70.75
X107.5Y-74.75
X107.5Y-78.75
X107.5Y-83.25
X107.5Y-96.25
X107.5Y-100.75
X107.5Y-104.75
X107.5Y-108.75
X107.5Y-113.25
X107.5Y-126.25
X107.5Y-130.75
X107.5Y-134.75
X107.5Y-138.75
X107.5Y-143.25
X109.5Y-68.25
X109.5Y-72.75
X109.5Y-76.75
X109.5Y-81.25
X109.5Y-85.25
X109.5Y-98.25
X109.5Y-102.75
X109.5Y-106.75
X109.5Y-111.25
X109.5Y-115.25
X109.5Y-128.25
X109.5Y-132.75
X109.5Y-136.75
X109.5Y-141.25
X109.5Y-145.25
X113.7Y-70.45
X117.25Y-110.1
X117.3Y-92.05
X117.3Y-122.05
X117.3Y-140.1
X121.5Y-65.25
X121.5Y-69.25
X121.5Y-73.75
X121.5Y-77.75
X121.5Y-82.25
X121.5Y-95.25
X121.5Y-99.25
X121.5Y-103.75
X121.5Y-107.75
X121.5Y-112.25
X121.5Y-125.25
X121.5Y-129.25
X121.5Y-133.75
X121.5Y-137.75
X121.5Y-142.25
X123.5Y-67.25
X123.5Y-71.75
X123.5Y-75.75
X123.5Y-79.75
X123.5Y-84.25
X123.5Y-97.25
X123.5Y-101.75
X123.5Y-105.75
X123.5Y-109.75
X123.5Y-114.25
X123.5Y-127.25
X123.5Y-131.75
X123.5Y-135.75
X123.5Y-139.75
X123.5Y-144.25
X125.5Y-65.25
X125.5Y-69.25
X125.5Y-71.75
X125.5Y-73.75
X125.5Y-75.75
X125.5Y-77.75
X125.5Y-79.75
X125.5Y-82.25
X125.5Y-86.25
X125.5Y-95.25
X125.5Y-99.25
X125.5Y-101.75
X125.5Y-103.75
X125.5Y-105.75
X125.5Y-107.75
X125.5Y-109.75
X125.5Y-112.25
X125.5Y-116.25
X125.5Y-125.25
X125.5Y-129.25
X125.5Y-131.75
X125.5Y-133.75
X125.5Y-135.75
X125.5Y-137.75
X125.5Y-139.75
X125.5Y-142.25
X125.5Y-146.25
X127.5Y-63.25
X127.5Y-67.25
X127.5Y-69.25
X127.5Y-82.25
X127.5Y-84.25
X127.5Y-93.25
X127.5Y-97.25
X127.5Y-99.25
X127.5Y-112.25
X127.5Y-114.25
X127.5Y-123.25
X127.5Y-127.25
X127.5Y-129.25
X127.5Y-142.25
X127.5Y-144.25
X129.5Y-65.25
X129.5Y-67.25
X129.5Y-69.25
X129.5Y-80.75
X129.5Y-82.25
X129.5Y-84.25
X129.5Y-86.25
X129.5Y-95.25
X129.5Y-97.25
X129.5Y-99.25
X129.5Y-110.25
X129.5Y-112.25
X129.5Y-114.25
X129.5Y-116.25
X129.5Y-125.25
X129.5Y-127.25
X129.5Y-129.25
X129.5Y-140.25
X129.5Y-142.25
X129.5Y-144.25
X129.5Y-146.25
X131.5Y-65.25
X131.5Y-67.25
X131.5Y-69.25
X131.5Y-80.75
X131.5Y-82.25
X131.5Y-84.25
X131.5Y-86.25
X131.5Y-88.65
X131.5Y-95.25
X131.5Y-97.25
X131.5Y-99.25
X131.5Y-110.25
X131.5Y-112.25
X131.5Y-114.25
X131.5Y-116.25
X131.5Y-125.25
X131.5Y-127.25
X131.5Y-129.25
X131.5Y-140.25
X131.5Y-142.25
X131.5Y-144.25
X131.5Y-146.25
X133.5Y-63.25
X133.5Y-67.25
X133.5Y-69.25
X133.5Y-82.25
X133.5Y-84.25
X133.5Y-93.25
X133.5Y-97.25
X133.5Y-99.25
X133.5Y-112.25
X133.5Y-114.25
X133.5Y-123.25
X133.5Y-127.25
X133.5Y-129.25
X133.5Y-142.25
X133.5Y-144.25
X135.5Y-65.25
X135.5Y-69.25
X135.5Y-71.75
X135.5Y-73.75
X135.5Y-75.75
X135.5Y-77.75
X135.5Y-79.75
X135.5Y-82.25
X135.5Y-86.25
X135.5Y-95.25
X135.5Y-99.25
X135.5Y-101.75
X135.5Y-103.75
X135.5Y-105.75
X135.5Y-107.75
X135.5Y-109.75
X135.5Y-112.25
X135.5Y-116.25
X135.5Y-125.25
X135.5Y-129.25
X135.5Y-131.75
X135.5Y-133.75
X135.5Y-135.75
X135.5Y-137.75
X135.5Y-139.75
X135.5Y-142.25
X135.5Y-146.25
X137.5Y-67.25
X137.5Y-71.75
X137.5Y-75.75
X137.5Y-79.75
X137.5Y-84.25
X137.5Y-97.25
X137.5Y-101.75
X137.5Y-105.75
X137.5Y-109.75
X137.5Y-114.25
X137.5Y-127.25
X137.5Y-131.75
X137.5Y-135.75
X137.5Y-139.75
X137.5Y-144.25
X139.5Y-65.25
X139.5Y-69.25
X139.5Y-73.75
X139.5Y-77.75
X139.5Y-82.25
X139.5Y-95.25
X139.5Y-99.25
X139.5Y-103.75
X139.5Y-107.75
X139.5Y-112.25
X139.5Y-125.25
X139.5Y-129.25
X139.5Y-133.75
X139.5Y-137.75
X139.5Y-142.25
X140.9Y-80.05
X140.9Y-92.05
X140.9Y-122.05
X141.9Y-101.25
X141.9Y-131.25
X143.65Y-82.3
X143.7Y-62.05
X143.7Y-140.05
X147.25Y-68.4
X147.25Y-88.5
X147.3Y-128.3
X147.35Y-118.4
X147.4Y-98.15
X151.5Y-68.25
X151.5Y-72.75
X151.5Y-76.75
X151.5Y-81.25
X151.5Y-85.25
X151.5Y-98.25
X151.5Y-102.75
X151.5Y-106.75
X151.5Y-111.25
X151.5Y-115.25
X151.5Y-128.25
X151.5Y-141.25
X151.5Y-145.25
X151.5Y-132.75
X151.5Y-136.75
X153.5Y-70.75
X153.5Y-74.75
X153.5Y-78.75
X153.5Y-83.25
X153.5Y-100.75
X153.5Y-104.75
X153.5Y-108.75
X153.5Y-113.25
X153.5Y-130.75
X153.5Y-134.75
X153.5Y-138.75
X153.5Y-143.25
X153.5Y-66.25
X153.5Y-96.25
X153.5Y-126.25
X155.5Y-72.75
X155.5Y-74.75
X155.5Y-76.75
X155.5Y-78.75
X155.5Y-81.25
X155.5Y-85.25
X155.5Y-102.75
X155.5Y-104.75
X155.5Y-106.75
X155.5Y-108.75
X155.5Y-111.25
X155.5Y-115.25
X155.5Y-132.75
X155.5Y-134.75
X155.5Y-136.75
X155.5Y-138.75
X155.5Y-141.25
X155.5Y-145.25
X155.5Y-64.25
X155.5Y-68.25
X155.5Y-70.75
X155.5Y-94.25
X155.5Y-98.25
X155.5Y-100.75
X155.5Y-124.25
X155.5Y-128.25
X155.5Y-130.75
X157.5Y-66.25
X157.5Y-68.25
X157.5Y-81.25
X157.5Y-83.25
X157.5Y-87.25
X157.5Y-96.25
X157.5Y-98.25
X157.5Y-111.25
X157.5Y-113.25
X157.5Y-117.25
X157.5Y-128.25
X157.5Y-141.25
X157.5Y-143.25
X157.5Y-147.25
X157.5Y-126.25
X159.5Y-64.25
X159.5Y-66.25
X159.5Y-68.25
X159.5Y-69.75
X159.5Y-81.25
X159.5Y-83.25
X159.5Y-85.25
X159.5Y-94.25
X159.5Y-96.25
X159.5Y-98.25
X159.5Y-99.75
X159.5Y-111.25
X159.5Y-113.25
X159.5Y-115.25
X159.5Y-126.25
X159.5Y-143.25
X159.5Y-145.25
X159.5Y-128.25
X159.5Y-124.25
X159.5Y-129.75
X159.5Y-141.25
X161.5Y-64.25
X161.5Y-66.25
X161.5Y-68.25
X161.5Y-69.75
X161.5Y-81.25
X161.5Y-83.25
X161.5Y-85.25
X161.5Y-94.25
X161.5Y-96.25
X161.5Y-98.25
X161.5Y-99.75
X161.5Y-111.25
X161.5Y-113.25
X161.5Y-115.25
X161.5Y-124.25
X161.5Y-128.25
X161.5Y-129.75
X161.5Y-141.25
X161.5Y-126.25
X161.5Y-143.25
X161.5Y-145.25
X163.5Y-66.25
X163.5Y-68.25
X163.5Y-81.25
X163.5Y-83.25
X163.5Y-87.25
X163.5Y-96.25
X163.5Y-98.25
X163.5Y-111.25
X163.5Y-113.25
X163.5Y-117.25
X163.5Y-126.25
X163.5Y-141.25
X163.5Y-143.25
X163.5Y-147.25
X163.5Y-128.25
X165.5Y-64.25
X165.5Y-68.25
X165.5Y-70.75
X165.5Y-94.25
X165.5Y-98.25
X165.5Y-100.75
X165.5Y-72.75
X165.5Y-74.75
X165.5Y-76.75
X165.5Y-78.75
X165.5Y-81.25
X165.5Y-85.25
X165.5Y-102.75
X165.5Y-104.75
X165.5Y-106.75
X165.5Y-108.75
X165.5Y-111.25
X165.5Y-115.25
X165.5Y-124.25
X165.5Y-128.25
X165.5Y-130.75
X165.5Y-134.75
X165.5Y-136.75
X165.5Y-138.75
X165.5Y-141.25
X165.5Y-145.25
X165.5Y-132.75
X167.5Y-66.25
X167.5Y-96.25
X167.5Y-70.75
X167.5Y-74.75
X167.5Y-78.75
X167.5Y-83.25
X167.5Y-100.75
X167.5Y-104.75
X167.5Y-108.75
X167.5Y-113.25
X167.5Y-126.25
X167.5Y-138.75
X167.5Y-143.25
X167.5Y-130.75
X167.5Y-134.75
X169.5Y-68.25
X169.5Y-72.75
X169.5Y-76.75
X169.5Y-81.25
X169.5Y-85.25
X169.5Y-98.25
X169.5Y-102.75
X169.5Y-106.75
X169.5Y-111.25
X169.5Y-115.25
X169.5Y-128.25
X169.5Y-132.75
X169.5Y-136.75
X169.5Y-141.25
X169.5Y-145.25
X173.7Y-70.45
T5
X119.95Y-24.65
X119.95Y-27.19
X119.95Y-29.73
X119.95Y-32.27
T6
X161.8Y-41.65
X161.8Y-46.65
X176.3Y-41.65
X176.3Y-44.15
X176.3Y-46.65
T4
X53.075Y-28.93G85X52.025Y-28.93
G05
X53.075Y-37.57G85X52.025Y-37.57
G05
X56.875Y-28.93G85X56.225Y-28.93
G05
X56.875Y-37.57G85X56.225Y-37.57
G05
T7
X169.45Y-38.55G85X168.15Y-38.55
G05
X169.45Y-49.75G85X168.15Y-49.75
G05
M30
