G04 #@! TF.GenerationSoftware,KiCad,Pcbnew,9.0.0*
G04 #@! TF.CreationDate,2025-03-20T12:53:00+01:00*
G04 #@! TF.ProjectId,backlight,6261636b-6c69-4676-9874-2e6b69636164,rev?*
G04 #@! TF.SameCoordinates,Original*
G04 #@! TF.FileFunction,Paste,Top*
G04 #@! TF.FilePolarity,Positive*
%FSLAX46Y46*%
G04 Gerber Fmt 4.6, Leading zero omitted, Abs format (unit mm)*
G04 Created by KiCad (PCBNEW 9.0.0) date 2025-03-20 12:53:00*
%MOMM*%
%LPD*%
G01*
G04 APERTURE LIST*
G04 Aperture macros list*
%AMRoundRect*
0 Rectangle with rounded corners*
0 $1 Rounding radius*
0 $2 $3 $4 $5 $6 $7 $8 $9 X,Y pos of 4 corners*
0 Add a 4 corners polygon primitive as box body*
4,1,4,$2,$3,$4,$5,$6,$7,$8,$9,$2,$3,0*
0 Add four circle primitives for the rounded corners*
1,1,$1+$1,$2,$3*
1,1,$1+$1,$4,$5*
1,1,$1+$1,$6,$7*
1,1,$1+$1,$8,$9*
0 Add four rect primitives between the rounded corners*
20,1,$1+$1,$2,$3,$4,$5,0*
20,1,$1+$1,$4,$5,$6,$7,0*
20,1,$1+$1,$6,$7,$8,$9,0*
20,1,$1+$1,$8,$9,$2,$3,0*%
%AMFreePoly0*
4,1,13,-1.324998,2.199999,0.375002,2.199999,0.375002,-0.250001,-1.324998,-0.250001,-1.324998,-0.780001,-1.724998,-0.780001,-1.724998,-0.250001,-2.024998,-0.250001,-2.024998,2.199999,-1.724998,2.199999,-1.724998,2.729999,-1.324998,2.729999,-1.324998,2.199999,-1.324998,2.199999,$1*%
G04 Aperture macros list end*
%ADD10RoundRect,0.150000X0.150000X-0.512500X0.150000X0.512500X-0.150000X0.512500X-0.150000X-0.512500X0*%
%ADD11RoundRect,0.200000X0.200000X0.275000X-0.200000X0.275000X-0.200000X-0.275000X0.200000X-0.275000X0*%
%ADD12RoundRect,0.250000X-0.325000X-1.100000X0.325000X-1.100000X0.325000X1.100000X-0.325000X1.100000X0*%
%ADD13R,2.500000X2.200000*%
%ADD14R,1.550000X2.200000*%
%ADD15RoundRect,0.250000X-0.650000X1.000000X-0.650000X-1.000000X0.650000X-1.000000X0.650000X1.000000X0*%
%ADD16RoundRect,0.250000X-0.250000X-0.475000X0.250000X-0.475000X0.250000X0.475000X-0.250000X0.475000X0*%
%ADD17R,2.850000X6.600000*%
%ADD18R,2.200000X1.550000*%
%ADD19R,2.200000X2.500000*%
%ADD20RoundRect,0.225000X-0.250000X0.225000X-0.250000X-0.225000X0.250000X-0.225000X0.250000X0.225000X0*%
%ADD21RoundRect,0.250000X-0.625000X0.312500X-0.625000X-0.312500X0.625000X-0.312500X0.625000X0.312500X0*%
%ADD22RoundRect,0.200000X-0.275000X0.200000X-0.275000X-0.200000X0.275000X-0.200000X0.275000X0.200000X0*%
%ADD23RoundRect,0.200000X-0.200000X-0.275000X0.200000X-0.275000X0.200000X0.275000X-0.200000X0.275000X0*%
%ADD24RoundRect,0.062500X-0.062500X0.350000X-0.062500X-0.350000X0.062500X-0.350000X0.062500X0.350000X0*%
%ADD25RoundRect,0.150000X-0.200000X0.150000X-0.200000X-0.150000X0.200000X-0.150000X0.200000X0.150000X0*%
%ADD26RoundRect,0.225000X-0.225000X-0.250000X0.225000X-0.250000X0.225000X0.250000X-0.225000X0.250000X0*%
%ADD27R,0.750000X0.400000*%
%ADD28FreePoly0,180.000000*%
%ADD29R,0.127000X0.127000*%
%ADD30RoundRect,0.225000X0.225000X0.250000X-0.225000X0.250000X-0.225000X-0.250000X0.225000X-0.250000X0*%
%ADD31RoundRect,0.145000X0.145000X0.145000X-0.145000X0.145000X-0.145000X-0.145000X0.145000X-0.145000X0*%
%ADD32RoundRect,0.068750X0.368750X0.068750X-0.368750X0.068750X-0.368750X-0.068750X0.368750X-0.068750X0*%
%ADD33RoundRect,0.068750X0.068750X0.368750X-0.068750X0.368750X-0.068750X-0.368750X0.068750X-0.368750X0*%
%ADD34RoundRect,0.250000X0.315000X-0.315000X0.315000X0.315000X-0.315000X0.315000X-0.315000X-0.315000X0*%
%ADD35RoundRect,0.062500X0.062500X-0.375000X0.062500X0.375000X-0.062500X0.375000X-0.062500X-0.375000X0*%
%ADD36RoundRect,0.062500X0.375000X-0.062500X0.375000X0.062500X-0.375000X0.062500X-0.375000X-0.062500X0*%
%ADD37RoundRect,0.250000X-0.475000X0.250000X-0.475000X-0.250000X0.475000X-0.250000X0.475000X0.250000X0*%
%ADD38RoundRect,0.087500X0.312500X-0.087500X0.312500X0.087500X-0.312500X0.087500X-0.312500X-0.087500X0*%
%ADD39RoundRect,0.200000X0.275000X-0.200000X0.275000X0.200000X-0.275000X0.200000X-0.275000X-0.200000X0*%
%ADD40RoundRect,0.150000X-0.150000X0.512500X-0.150000X-0.512500X0.150000X-0.512500X0.150000X0.512500X0*%
%ADD41RoundRect,0.150000X-0.425000X0.150000X-0.425000X-0.150000X0.425000X-0.150000X0.425000X0.150000X0*%
%ADD42RoundRect,0.075000X-0.500000X0.075000X-0.500000X-0.075000X0.500000X-0.075000X0.500000X0.075000X0*%
%ADD43O,1.800000X1.200000*%
%ADD44O,2.200000X1.200000*%
G04 APERTURE END LIST*
D10*
X98900000Y-45587500D03*
X99850000Y-45587500D03*
X100800000Y-45587500D03*
X100800000Y-43312500D03*
X98900000Y-43312500D03*
D11*
X66075000Y-42050000D03*
X64425000Y-42050000D03*
D12*
X95324999Y-38850000D03*
X98275001Y-38850000D03*
D13*
X101950002Y-102750000D03*
D14*
X99375002Y-102750000D03*
D12*
X127124999Y-38850000D03*
X130075001Y-38850000D03*
D15*
X117250000Y-42495000D03*
X117250000Y-46495000D03*
D16*
X69574000Y-49310000D03*
X71473998Y-49310000D03*
D17*
X133475000Y-53050000D03*
X127825000Y-53050000D03*
D18*
X158500000Y-105725000D03*
D19*
X158500000Y-108300000D03*
D15*
X127850000Y-42495000D03*
X127850000Y-46495000D03*
D20*
X67887000Y-37646000D03*
X67887000Y-39196000D03*
D21*
X100739998Y-37387500D03*
X100739998Y-40312500D03*
D20*
X123850000Y-43675000D03*
X123850000Y-45225000D03*
D13*
X72150000Y-137750000D03*
D14*
X69575000Y-137750000D03*
D21*
X90150000Y-37387500D03*
X90150000Y-40312500D03*
D19*
X128500000Y-134300000D03*
D18*
X128500000Y-131725000D03*
D15*
X74850000Y-42495000D03*
X74850000Y-46495000D03*
D20*
X102650000Y-43675000D03*
X102650000Y-45225000D03*
D22*
X59885000Y-39870000D03*
X59885000Y-41520000D03*
D20*
X81450000Y-43675000D03*
X81450000Y-45225000D03*
D18*
X132500000Y-134775000D03*
D19*
X132500000Y-132200000D03*
D13*
X132150000Y-107750000D03*
D14*
X129575000Y-107750000D03*
D11*
X67790000Y-54337000D03*
X66140000Y-54337000D03*
D20*
X61448000Y-39934500D03*
X61448000Y-41484500D03*
D13*
X161950000Y-102750000D03*
D14*
X159375000Y-102750000D03*
D12*
X116524999Y-38850000D03*
X119475001Y-38850000D03*
D21*
X79550000Y-37287500D03*
X79550000Y-40212500D03*
D23*
X60790000Y-56478000D03*
X62440000Y-56478000D03*
D24*
X55049999Y-39812500D03*
X54550000Y-39812500D03*
X54050001Y-39812500D03*
X54050001Y-41187500D03*
X54550000Y-41187500D03*
X55049999Y-41187500D03*
D12*
X74124999Y-38850000D03*
X77075001Y-38850000D03*
D11*
X67772000Y-51881000D03*
X66122000Y-51881000D03*
D19*
X68500000Y-74300000D03*
D18*
X68500000Y-71725000D03*
D13*
X161950000Y-72750000D03*
D14*
X159375000Y-72750000D03*
D15*
X96050000Y-42495000D03*
X96050000Y-46495000D03*
X85450000Y-42495000D03*
X85450000Y-46495000D03*
D18*
X158500000Y-75725000D03*
D19*
X158500000Y-78300000D03*
D25*
X61398000Y-38459500D03*
X61398000Y-37059500D03*
D17*
X122875000Y-53050000D03*
X117225000Y-53050000D03*
D13*
X129050000Y-77750000D03*
D14*
X131625000Y-77750000D03*
D21*
X81850000Y-37287500D03*
X81850000Y-40212500D03*
X121950000Y-37387500D03*
X121950000Y-40312500D03*
D26*
X59764000Y-32709000D03*
X61314000Y-32709000D03*
D27*
X66160998Y-34085999D03*
X66160998Y-33436001D03*
X66160998Y-32785999D03*
X66160998Y-32136001D03*
D28*
X63111002Y-32136001D03*
D29*
X63111002Y-32785999D03*
X63111002Y-33436001D03*
X63111002Y-34085999D03*
D13*
X101950001Y-72749999D03*
D14*
X99375001Y-72749999D03*
D30*
X71699000Y-35612000D03*
X70149000Y-35612000D03*
D21*
X134850000Y-37387500D03*
X134850000Y-40312500D03*
D11*
X67790000Y-49317000D03*
X66140000Y-49317000D03*
D10*
X130700000Y-45587500D03*
X131650000Y-45587500D03*
X132600000Y-45587500D03*
X132600000Y-43312500D03*
X130700000Y-43312500D03*
D21*
X132539998Y-37387500D03*
X132539998Y-40312500D03*
X92450002Y-37387500D03*
X92450002Y-40312500D03*
D26*
X59758000Y-34255000D03*
X61308000Y-34255000D03*
D19*
X102499999Y-76199999D03*
D18*
X102499999Y-78774999D03*
D20*
X113250000Y-43675000D03*
X113250000Y-45225000D03*
D18*
X132500000Y-74775000D03*
D19*
X132500000Y-72200000D03*
X128500000Y-74300000D03*
D18*
X128500000Y-71725000D03*
D31*
X64745000Y-39195000D03*
X64745000Y-38475000D03*
X64025000Y-39195000D03*
X64025000Y-38475000D03*
D32*
X65922500Y-39335000D03*
X65922500Y-38835000D03*
X65922500Y-38335000D03*
D33*
X64885000Y-37297500D03*
X64385000Y-37297500D03*
X63885000Y-37297500D03*
D32*
X62847500Y-38335000D03*
X62847500Y-38835000D03*
X62847500Y-39335000D03*
D33*
X63885000Y-40372500D03*
X64385000Y-40372500D03*
X64885000Y-40372500D03*
D19*
X128500000Y-104300000D03*
D18*
X128500000Y-101725000D03*
X72500000Y-104775000D03*
D19*
X72500000Y-102200000D03*
D26*
X55550000Y-52925000D03*
X57100000Y-52925000D03*
D18*
X158500002Y-135725000D03*
D19*
X158500002Y-138300000D03*
D16*
X69562001Y-54324000D03*
X71461999Y-54324000D03*
D18*
X72500000Y-74775000D03*
D19*
X72500000Y-72200000D03*
D20*
X92050000Y-43675000D03*
X92050000Y-45225000D03*
D18*
X98500002Y-135725000D03*
D19*
X98500002Y-138300000D03*
D13*
X69050000Y-77750000D03*
D14*
X71625000Y-77750000D03*
D21*
X113650000Y-37287500D03*
X113650000Y-40212500D03*
D17*
X112275000Y-53050000D03*
X106625000Y-53050000D03*
D13*
X72150000Y-107750000D03*
D14*
X69575000Y-107750000D03*
D34*
X54225000Y-49850000D03*
X55625000Y-49850000D03*
X57025000Y-49850000D03*
X58425000Y-49850000D03*
X54225000Y-48450000D03*
X55625000Y-48450000D03*
X57025000Y-48450000D03*
X58425000Y-48450000D03*
X54225000Y-47050000D03*
X55625000Y-47050000D03*
X57025000Y-47050000D03*
X58425000Y-47050000D03*
X54225000Y-45650000D03*
X55625000Y-45650000D03*
X57025000Y-45650000D03*
X58425000Y-45650000D03*
D35*
X53575000Y-51187500D03*
X54075000Y-51187500D03*
X54575001Y-51187500D03*
X55075000Y-51187500D03*
X55574999Y-51187500D03*
X56075000Y-51187500D03*
X56575000Y-51187500D03*
X57075001Y-51187500D03*
X57575000Y-51187500D03*
X58074999Y-51187500D03*
X58575000Y-51187500D03*
X59075000Y-51187500D03*
D36*
X59762500Y-50500000D03*
X59762500Y-50000000D03*
X59762500Y-49499999D03*
X59762500Y-49000000D03*
X59762500Y-48500001D03*
X59762500Y-48000000D03*
X59762500Y-47500000D03*
X59762500Y-46999999D03*
X59762500Y-46500000D03*
X59762500Y-46000001D03*
X59762500Y-45500000D03*
X59762500Y-45000000D03*
D35*
X59075000Y-44312500D03*
X58575000Y-44312500D03*
X58074999Y-44312500D03*
X57575000Y-44312500D03*
X57075001Y-44312500D03*
X56575000Y-44312500D03*
X56075000Y-44312500D03*
X55574999Y-44312500D03*
X55075000Y-44312500D03*
X54575001Y-44312500D03*
X54075000Y-44312500D03*
X53575000Y-44312500D03*
D36*
X52887500Y-45000000D03*
X52887500Y-45500000D03*
X52887500Y-46000001D03*
X52887500Y-46500000D03*
X52887500Y-46999999D03*
X52887500Y-47500000D03*
X52887500Y-48000000D03*
X52887500Y-48500001D03*
X52887500Y-49000000D03*
X52887500Y-49499999D03*
X52887500Y-50000000D03*
X52887500Y-50500000D03*
D15*
X106650000Y-42495000D03*
X106650000Y-46495000D03*
D17*
X80475000Y-53050000D03*
X74825000Y-53050000D03*
D10*
X77700000Y-45587500D03*
X78650000Y-45587500D03*
X79600000Y-45587500D03*
X79600000Y-43312500D03*
X77700000Y-43312500D03*
D13*
X132150000Y-137750000D03*
D14*
X129575000Y-137750000D03*
D12*
X84724999Y-38850000D03*
X87675001Y-38850000D03*
D37*
X62050000Y-27650001D03*
X62050000Y-29549999D03*
D17*
X101675000Y-53050000D03*
X96025000Y-53050000D03*
D10*
X120100000Y-45587500D03*
X121050000Y-45587500D03*
X122000000Y-45587500D03*
X122000000Y-43312500D03*
X120100000Y-43312500D03*
X109500000Y-45587500D03*
X110450000Y-45587500D03*
X111400000Y-45587500D03*
X111400000Y-43312500D03*
X109500000Y-43312500D03*
D18*
X98500002Y-105725000D03*
D19*
X98500002Y-108300000D03*
X102500000Y-136200000D03*
D18*
X102500000Y-138775000D03*
X132500000Y-104775000D03*
D19*
X132500000Y-102200000D03*
D11*
X66981000Y-46795000D03*
X65331000Y-46795000D03*
D19*
X162500000Y-106200000D03*
D18*
X162500000Y-108775000D03*
D22*
X59885000Y-36820000D03*
X59885000Y-38470000D03*
D16*
X69574000Y-51881000D03*
X71473998Y-51881000D03*
D38*
X60100000Y-29775000D03*
X60100000Y-28725000D03*
D10*
X88300000Y-45587500D03*
X89250000Y-45587500D03*
X90200000Y-45587500D03*
X90200000Y-43312500D03*
X88300000Y-43312500D03*
D39*
X63800000Y-46850000D03*
X63800000Y-45200000D03*
D40*
X71450000Y-37550000D03*
X70500000Y-37550000D03*
X69550000Y-37550000D03*
X69550000Y-39825000D03*
X71450000Y-39825000D03*
D13*
X101950002Y-132750000D03*
D14*
X99375002Y-132750000D03*
D21*
X103050000Y-37387500D03*
X103050000Y-40312500D03*
D13*
X161950001Y-132750000D03*
D14*
X159375001Y-132750000D03*
D21*
X111350000Y-37287500D03*
X111350000Y-40212500D03*
D19*
X162500000Y-136200000D03*
D18*
X162500000Y-138775000D03*
D12*
X105924999Y-38850000D03*
X108875001Y-38850000D03*
D21*
X124250002Y-37387500D03*
X124250002Y-40312500D03*
D19*
X68500000Y-104300000D03*
D18*
X68500000Y-101725000D03*
D20*
X134450000Y-43675000D03*
X134450000Y-45225000D03*
D19*
X102500000Y-106200000D03*
D18*
X102500000Y-108775000D03*
X98500001Y-75724999D03*
D19*
X98500001Y-78299999D03*
D41*
X57125000Y-30050000D03*
X57125000Y-30850000D03*
D42*
X57125000Y-32000000D03*
X57125000Y-33000000D03*
X57125000Y-33500000D03*
X57125000Y-34500000D03*
D41*
X57125000Y-35650000D03*
X57125000Y-36450000D03*
X57125000Y-36450000D03*
X57125000Y-35650000D03*
D42*
X57125000Y-35000000D03*
X57125000Y-34000000D03*
X57125000Y-32500000D03*
X57125000Y-31500000D03*
D41*
X57125000Y-30850000D03*
X57125000Y-30050000D03*
D43*
X56550000Y-28930000D03*
D44*
X52550000Y-28930000D03*
D43*
X56550000Y-37570000D03*
D44*
X52550000Y-37570000D03*
D18*
X72500000Y-134775000D03*
D19*
X72500000Y-132200000D03*
X162500000Y-76200000D03*
D18*
X162500000Y-78775000D03*
D19*
X68500000Y-134300000D03*
D18*
X68500000Y-131725000D03*
D17*
X91075000Y-53050000D03*
X85425000Y-53050000D03*
M02*
