G04 #@! TF.GenerationSoftware,KiCad,Pcbnew,9.0.0*
G04 #@! TF.CreationDate,2025-03-20T12:53:00+01:00*
G04 #@! TF.ProjectId,backlight,6261636b-6c69-4676-9874-2e6b69636164,rev?*
G04 #@! TF.SameCoordinates,Original*
G04 #@! TF.FileFunction,Legend,Top*
G04 #@! TF.FilePolarity,Positive*
%FSLAX46Y46*%
G04 Gerber Fmt 4.6, Leading zero omitted, Abs format (unit mm)*
G04 Created by KiCad (PCBNEW 9.0.0) date 2025-03-20 12:53:00*
%MOMM*%
%LPD*%
G01*
G04 APERTURE LIST*
G04 Aperture macros list*
%AMRoundRect*
0 Rectangle with rounded corners*
0 $1 Rounding radius*
0 $2 $3 $4 $5 $6 $7 $8 $9 X,Y pos of 4 corners*
0 Add a 4 corners polygon primitive as box body*
4,1,4,$2,$3,$4,$5,$6,$7,$8,$9,$2,$3,0*
0 Add four circle primitives for the rounded corners*
1,1,$1+$1,$2,$3*
1,1,$1+$1,$4,$5*
1,1,$1+$1,$6,$7*
1,1,$1+$1,$8,$9*
0 Add four rect primitives between the rounded corners*
20,1,$1+$1,$2,$3,$4,$5,0*
20,1,$1+$1,$4,$5,$6,$7,0*
20,1,$1+$1,$6,$7,$8,$9,0*
20,1,$1+$1,$8,$9,$2,$3,0*%
%AMFreePoly0*
4,1,6,1.000000,0.000000,0.500000,-0.750000,-0.500000,-0.750000,-0.500000,0.750000,0.500000,0.750000,1.000000,0.000000,1.000000,0.000000,$1*%
%AMFreePoly1*
4,1,6,0.500000,-0.750000,-0.650000,-0.750000,-0.150000,0.000000,-0.650000,0.750000,0.500000,0.750000,0.500000,-0.750000,0.500000,-0.750000,$1*%
%AMFreePoly2*
4,1,13,-1.324998,2.199999,0.375002,2.199999,0.375002,-0.250001,-1.324998,-0.250001,-1.324998,-0.780001,-1.724998,-0.780001,-1.724998,-0.250001,-2.024998,-0.250001,-2.024998,2.199999,-1.724998,2.199999,-1.724998,2.729999,-1.324998,2.729999,-1.324998,2.199999,-1.324998,2.199999,$1*%
G04 Aperture macros list end*
%ADD10C,0.150000*%
%ADD11C,0.400000*%
%ADD12C,0.120000*%
%ADD13C,0.152400*%
%ADD14C,0.100000*%
%ADD15C,2.575000*%
%ADD16RoundRect,0.150000X0.150000X-0.512500X0.150000X0.512500X-0.150000X0.512500X-0.150000X-0.512500X0*%
%ADD17RoundRect,0.200000X0.200000X0.275000X-0.200000X0.275000X-0.200000X-0.275000X0.200000X-0.275000X0*%
%ADD18RoundRect,0.250000X-0.325000X-1.100000X0.325000X-1.100000X0.325000X1.100000X-0.325000X1.100000X0*%
%ADD19R,2.500000X2.200000*%
%ADD20R,1.550000X2.200000*%
%ADD21RoundRect,0.250000X-0.650000X1.000000X-0.650000X-1.000000X0.650000X-1.000000X0.650000X1.000000X0*%
%ADD22RoundRect,0.250000X-0.250000X-0.475000X0.250000X-0.475000X0.250000X0.475000X-0.250000X0.475000X0*%
%ADD23R,2.850000X6.600000*%
%ADD24R,2.200000X1.550000*%
%ADD25R,2.200000X2.500000*%
%ADD26RoundRect,0.225000X-0.250000X0.225000X-0.250000X-0.225000X0.250000X-0.225000X0.250000X0.225000X0*%
%ADD27RoundRect,0.250000X-0.625000X0.312500X-0.625000X-0.312500X0.625000X-0.312500X0.625000X0.312500X0*%
%ADD28C,2.200000*%
%ADD29RoundRect,0.200000X-0.275000X0.200000X-0.275000X-0.200000X0.275000X-0.200000X0.275000X0.200000X0*%
%ADD30RoundRect,0.200000X-0.200000X-0.275000X0.200000X-0.275000X0.200000X0.275000X-0.200000X0.275000X0*%
%ADD31RoundRect,0.062500X-0.062500X0.350000X-0.062500X-0.350000X0.062500X-0.350000X0.062500X0.350000X0*%
%ADD32FreePoly0,0.000000*%
%ADD33FreePoly1,0.000000*%
%ADD34RoundRect,0.150000X-0.200000X0.150000X-0.200000X-0.150000X0.200000X-0.150000X0.200000X0.150000X0*%
%ADD35RoundRect,0.225000X-0.225000X-0.250000X0.225000X-0.250000X0.225000X0.250000X-0.225000X0.250000X0*%
%ADD36R,0.750000X0.400000*%
%ADD37FreePoly2,180.000000*%
%ADD38R,0.127000X0.127000*%
%ADD39RoundRect,0.225000X0.225000X0.250000X-0.225000X0.250000X-0.225000X-0.250000X0.225000X-0.250000X0*%
%ADD40RoundRect,0.068750X0.368750X0.068750X-0.368750X0.068750X-0.368750X-0.068750X0.368750X-0.068750X0*%
%ADD41RoundRect,0.068750X0.068750X0.368750X-0.068750X0.368750X-0.068750X-0.368750X0.068750X-0.368750X0*%
%ADD42R,1.450000X1.450000*%
%ADD43C,0.990600*%
%ADD44C,0.787400*%
%ADD45RoundRect,0.062500X0.062500X-0.375000X0.062500X0.375000X-0.062500X0.375000X-0.062500X-0.375000X0*%
%ADD46RoundRect,0.062500X0.375000X-0.062500X0.375000X0.062500X-0.375000X0.062500X-0.375000X-0.062500X0*%
%ADD47R,5.600000X5.600000*%
%ADD48RoundRect,0.250000X-0.475000X0.250000X-0.475000X-0.250000X0.475000X-0.250000X0.475000X0.250000X0*%
%ADD49C,1.524000*%
%ADD50RoundRect,0.087500X0.312500X-0.087500X0.312500X0.087500X-0.312500X0.087500X-0.312500X-0.087500X0*%
%ADD51RoundRect,0.200000X0.275000X-0.200000X0.275000X0.200000X-0.275000X0.200000X-0.275000X-0.200000X0*%
%ADD52RoundRect,0.150000X-0.150000X0.512500X-0.150000X-0.512500X0.150000X-0.512500X0.150000X0.512500X0*%
%ADD53R,2.000000X2.000000*%
%ADD54C,2.000000*%
%ADD55R,3.200000X2.000000*%
%ADD56RoundRect,0.150000X-0.425000X0.150000X-0.425000X-0.150000X0.425000X-0.150000X0.425000X0.150000X0*%
%ADD57RoundRect,0.075000X-0.500000X0.075000X-0.500000X-0.075000X0.500000X-0.075000X0.500000X0.075000X0*%
%ADD58O,1.800000X1.200000*%
%ADD59O,2.200000X1.200000*%
G04 APERTURE END LIST*
D10*
X68000000Y-139850000D02*
X74150000Y-139850000D01*
X74150000Y-136250000D01*
X84950000Y-136250000D01*
X84950000Y-149750000D01*
X55950000Y-149750000D01*
X55950000Y-136250000D01*
X68000000Y-136250000D01*
X68000000Y-139850000D01*
G36*
X68000000Y-139850000D02*
G01*
X74150000Y-139850000D01*
X74150000Y-136250000D01*
X84950000Y-136250000D01*
X84950000Y-149750000D01*
X55950000Y-149750000D01*
X55950000Y-136250000D01*
X68000000Y-136250000D01*
X68000000Y-139850000D01*
G37*
X156400000Y-110250000D02*
X164600000Y-110250000D01*
X164600000Y-104250000D01*
X175000000Y-104250000D01*
X175000000Y-119750000D01*
X146000000Y-119750000D01*
X146000000Y-104250000D01*
X156400000Y-104250000D01*
X156400000Y-110250000D01*
G36*
X156400000Y-110250000D02*
G01*
X164600000Y-110250000D01*
X164600000Y-104250000D01*
X175000000Y-104250000D01*
X175000000Y-119750000D01*
X146000000Y-119750000D01*
X146000000Y-104250000D01*
X156400000Y-104250000D01*
X156400000Y-110250000D01*
G37*
X85000000Y-106250000D02*
X74600000Y-106250000D01*
X74600000Y-100250000D01*
X66400000Y-100250000D01*
X66400000Y-106250000D01*
X56000000Y-106250000D01*
X56000000Y-90750000D01*
X85000000Y-90750000D01*
X85000000Y-106250000D01*
G36*
X85000000Y-106250000D02*
G01*
X74600000Y-106250000D01*
X74600000Y-100250000D01*
X66400000Y-100250000D01*
X66400000Y-106250000D01*
X56000000Y-106250000D01*
X56000000Y-90750000D01*
X85000000Y-90750000D01*
X85000000Y-106250000D01*
G37*
X156400000Y-140250000D02*
X164600001Y-140249999D01*
X164600001Y-134250000D01*
X175000001Y-134250000D01*
X175000001Y-149749999D01*
X146000000Y-149750000D01*
X146000000Y-134250000D01*
X156400000Y-134250000D01*
X156400000Y-140250000D01*
G36*
X156400000Y-140250000D02*
G01*
X164600001Y-140249999D01*
X164600001Y-134250000D01*
X175000001Y-134250000D01*
X175000001Y-149749999D01*
X146000000Y-149750000D01*
X146000000Y-134250000D01*
X156400000Y-134250000D01*
X156400000Y-140250000D01*
G37*
X128050000Y-139850000D02*
X134150000Y-139850000D01*
X134150000Y-136250000D01*
X145000000Y-136250000D01*
X145000000Y-149750000D01*
X116000000Y-149750000D01*
X116000000Y-136250000D01*
X128050000Y-136250000D01*
X128050000Y-139850000D01*
G36*
X128050000Y-139850000D02*
G01*
X134150000Y-139850000D01*
X134150000Y-136250000D01*
X145000000Y-136250000D01*
X145000000Y-149750000D01*
X116000000Y-149750000D01*
X116000000Y-136250000D01*
X128050000Y-136250000D01*
X128050000Y-139850000D01*
G37*
X175000000Y-104250000D02*
X163900000Y-104250000D01*
X163900000Y-100650000D01*
X157900000Y-100650000D01*
X157900000Y-104250000D01*
X146000000Y-104250000D01*
X146000000Y-90750000D01*
X175000000Y-90750000D01*
X175000000Y-104250000D01*
G36*
X175000000Y-104250000D02*
G01*
X163900000Y-104250000D01*
X163900000Y-100650000D01*
X157900000Y-100650000D01*
X157900000Y-104250000D01*
X146000000Y-104250000D01*
X146000000Y-90750000D01*
X175000000Y-90750000D01*
X175000000Y-104250000D01*
G37*
X67100000Y-79850000D02*
X73100000Y-79850000D01*
X73100000Y-76250000D01*
X85000000Y-76250000D01*
X85000000Y-89750000D01*
X56000000Y-89750000D01*
X56000000Y-76250000D01*
X67100000Y-76250000D01*
X67100000Y-79850000D01*
G36*
X67100000Y-79850000D02*
G01*
X73100000Y-79850000D01*
X73100000Y-76250000D01*
X85000000Y-76250000D01*
X85000000Y-89750000D01*
X56000000Y-89750000D01*
X56000000Y-76250000D01*
X67100000Y-76250000D01*
X67100000Y-79850000D01*
G37*
X96400000Y-80250000D02*
X104600000Y-80250000D01*
X104600000Y-74250000D01*
X115000000Y-74250000D01*
X115000000Y-89750000D01*
X86000000Y-89750000D01*
X86000000Y-74250000D01*
X96400000Y-74250000D01*
X96400000Y-80250000D01*
G36*
X96400000Y-80250000D02*
G01*
X104600000Y-80250000D01*
X104600000Y-74250000D01*
X115000000Y-74250000D01*
X115000000Y-89750000D01*
X86000000Y-89750000D01*
X86000000Y-74250000D01*
X96400000Y-74250000D01*
X96400000Y-80250000D01*
G37*
X96400000Y-110250000D02*
X104600000Y-110250000D01*
X104600000Y-104250000D01*
X115000000Y-104250000D01*
X115000000Y-119750000D01*
X86000000Y-119750000D01*
X86000000Y-104250000D01*
X96400000Y-104250000D01*
X96400000Y-110250000D01*
G36*
X96400000Y-110250000D02*
G01*
X104600000Y-110250000D01*
X104600000Y-104250000D01*
X115000000Y-104250000D01*
X115000000Y-119750000D01*
X86000000Y-119750000D01*
X86000000Y-104250000D01*
X96400000Y-104250000D01*
X96400000Y-110250000D01*
G37*
X145000000Y-106250000D02*
X134600000Y-106250000D01*
X134600000Y-100250000D01*
X126400000Y-100250000D01*
X126400000Y-106250000D01*
X116000000Y-106250000D01*
X116000000Y-90750000D01*
X145000000Y-90750000D01*
X145000000Y-106250000D01*
G36*
X145000000Y-106250000D02*
G01*
X134600000Y-106250000D01*
X134600000Y-100250000D01*
X126400000Y-100250000D01*
X126400000Y-106250000D01*
X116000000Y-106250000D01*
X116000000Y-90750000D01*
X145000000Y-90750000D01*
X145000000Y-106250000D01*
G37*
X115000000Y-104250000D02*
X103900000Y-104250000D01*
X103900001Y-100650000D01*
X97900000Y-100650000D01*
X97899999Y-104250000D01*
X86000000Y-104250000D01*
X86000000Y-90750000D01*
X115000000Y-90750000D01*
X115000000Y-104250000D01*
G36*
X115000000Y-104250000D02*
G01*
X103900000Y-104250000D01*
X103900001Y-100650000D01*
X97900000Y-100650000D01*
X97899999Y-104250000D01*
X86000000Y-104250000D01*
X86000000Y-90750000D01*
X115000000Y-90750000D01*
X115000000Y-104250000D01*
G37*
X115000000Y-74250000D02*
X103900001Y-74250000D01*
X103900000Y-70650000D01*
X97899999Y-70650000D01*
X97900000Y-74250000D01*
X86000000Y-74250000D01*
X86000000Y-60750000D01*
X115000000Y-60750000D01*
X115000000Y-74250000D01*
G36*
X115000000Y-74250000D02*
G01*
X103900001Y-74250000D01*
X103900000Y-70650000D01*
X97899999Y-70650000D01*
X97900000Y-74250000D01*
X86000000Y-74250000D01*
X86000000Y-60750000D01*
X115000000Y-60750000D01*
X115000000Y-74250000D01*
G37*
X145000000Y-76250000D02*
X134600000Y-76250000D01*
X134600000Y-70250000D01*
X126400000Y-70250000D01*
X126400000Y-76250000D01*
X116000000Y-76250000D01*
X116000000Y-60750000D01*
X145000000Y-60750000D01*
X145000000Y-76250000D01*
G36*
X145000000Y-76250000D02*
G01*
X134600000Y-76250000D01*
X134600000Y-70250000D01*
X126400000Y-70250000D01*
X126400000Y-76250000D01*
X116000000Y-76250000D01*
X116000000Y-60750000D01*
X145000000Y-60750000D01*
X145000000Y-76250000D01*
G37*
X68050000Y-109850000D02*
X74150000Y-109850000D01*
X74150000Y-106250000D01*
X85000000Y-106250000D01*
X85000000Y-119750000D01*
X56000000Y-119750000D01*
X56000000Y-106250000D01*
X68050000Y-106250000D01*
X68050000Y-109850000D01*
G36*
X68050000Y-109850000D02*
G01*
X74150000Y-109850000D01*
X74150000Y-106250000D01*
X85000000Y-106250000D01*
X85000000Y-119750000D01*
X56000000Y-119750000D01*
X56000000Y-106250000D01*
X68050000Y-106250000D01*
X68050000Y-109850000D01*
G37*
X85000000Y-76250000D02*
X74600000Y-76250000D01*
X74600000Y-70250000D01*
X66400000Y-70250000D01*
X66400000Y-76250000D01*
X56000000Y-76250000D01*
X56000000Y-60750000D01*
X85000000Y-60750000D01*
X85000000Y-76250000D01*
G36*
X85000000Y-76250000D02*
G01*
X74600000Y-76250000D01*
X74600000Y-70250000D01*
X66400000Y-70250000D01*
X66400000Y-76250000D01*
X56000000Y-76250000D01*
X56000000Y-60750000D01*
X85000000Y-60750000D01*
X85000000Y-76250000D01*
G37*
X175000000Y-74250000D02*
X163900000Y-74250000D01*
X163900000Y-70650000D01*
X157900000Y-70650000D01*
X157900000Y-74250000D01*
X146000000Y-74250000D01*
X146000000Y-60750000D01*
X175000000Y-60750000D01*
X175000000Y-74250000D01*
G36*
X175000000Y-74250000D02*
G01*
X163900000Y-74250000D01*
X163900000Y-70650000D01*
X157900000Y-70650000D01*
X157900000Y-74250000D01*
X146000000Y-74250000D01*
X146000000Y-60750000D01*
X175000000Y-60750000D01*
X175000000Y-74250000D01*
G37*
X115000000Y-134250000D02*
X103900000Y-134250000D01*
X103900001Y-130650000D01*
X97900000Y-130650000D01*
X97899999Y-134250000D01*
X86000000Y-134250000D01*
X86000000Y-120750000D01*
X115000000Y-120750000D01*
X115000000Y-134250000D01*
G36*
X115000000Y-134250000D02*
G01*
X103900000Y-134250000D01*
X103900001Y-130650000D01*
X97900000Y-130650000D01*
X97899999Y-134250000D01*
X86000000Y-134250000D01*
X86000000Y-120750000D01*
X115000000Y-120750000D01*
X115000000Y-134250000D01*
G37*
X85000000Y-136250000D02*
X74600000Y-136250000D01*
X74600000Y-130250000D01*
X66400000Y-130250000D01*
X66400000Y-136250000D01*
X56000000Y-136250000D01*
X56000000Y-120750000D01*
X85000000Y-120750000D01*
X85000000Y-136250000D01*
G36*
X85000000Y-136250000D02*
G01*
X74600000Y-136250000D01*
X74600000Y-130250000D01*
X66400000Y-130250000D01*
X66400000Y-136250000D01*
X56000000Y-136250000D01*
X56000000Y-120750000D01*
X85000000Y-120750000D01*
X85000000Y-136250000D01*
G37*
X96400000Y-140250000D02*
X104600000Y-140250000D01*
X104600000Y-134250000D01*
X115000000Y-134250000D01*
X115000000Y-149750000D01*
X86000000Y-149750000D01*
X86000000Y-134250000D01*
X96400000Y-134250000D01*
X96400000Y-140250000D01*
G36*
X96400000Y-140250000D02*
G01*
X104600000Y-140250000D01*
X104600000Y-134250000D01*
X115000000Y-134250000D01*
X115000000Y-149750000D01*
X86000000Y-149750000D01*
X86000000Y-134250000D01*
X96400000Y-134250000D01*
X96400000Y-140250000D01*
G37*
X175000001Y-134250000D02*
X163900000Y-134250000D01*
X163900000Y-130650000D01*
X157900001Y-130649999D01*
X157900001Y-134250000D01*
X146000000Y-134250000D01*
X146000000Y-120750000D01*
X175000001Y-120750000D01*
X175000001Y-134250000D01*
G36*
X175000001Y-134250000D02*
G01*
X163900000Y-134250000D01*
X163900000Y-130650000D01*
X157900001Y-130649999D01*
X157900001Y-134250000D01*
X146000000Y-134250000D01*
X146000000Y-120750000D01*
X175000001Y-120750000D01*
X175000001Y-134250000D01*
G37*
X128050000Y-109850000D02*
X134150000Y-109850000D01*
X134150000Y-106250000D01*
X145000000Y-106250000D01*
X145000000Y-119750000D01*
X116000000Y-119750000D01*
X116000000Y-106250000D01*
X128050000Y-106250000D01*
X128050000Y-109850000D01*
G36*
X128050000Y-109850000D02*
G01*
X134150000Y-109850000D01*
X134150000Y-106250000D01*
X145000000Y-106250000D01*
X145000000Y-119750000D01*
X116000000Y-119750000D01*
X116000000Y-106250000D01*
X128050000Y-106250000D01*
X128050000Y-109850000D01*
G37*
X127100000Y-79850000D02*
X133100000Y-79850000D01*
X133100000Y-76250000D01*
X145000000Y-76250000D01*
X145000000Y-89750000D01*
X116000000Y-89750000D01*
X116000000Y-76250000D01*
X127100000Y-76250000D01*
X127100000Y-79850000D01*
G36*
X127100000Y-79850000D02*
G01*
X133100000Y-79850000D01*
X133100000Y-76250000D01*
X145000000Y-76250000D01*
X145000000Y-89750000D01*
X116000000Y-89750000D01*
X116000000Y-76250000D01*
X127100000Y-76250000D01*
X127100000Y-79850000D01*
G37*
X156400000Y-80250000D02*
X164600000Y-80250000D01*
X164600000Y-74250000D01*
X175000000Y-74250000D01*
X175000000Y-89750000D01*
X146000000Y-89750000D01*
X146000000Y-74250000D01*
X156400000Y-74250000D01*
X156400000Y-80250000D01*
G36*
X156400000Y-80250000D02*
G01*
X164600000Y-80250000D01*
X164600000Y-74250000D01*
X175000000Y-74250000D01*
X175000000Y-89750000D01*
X146000000Y-89750000D01*
X146000000Y-74250000D01*
X156400000Y-74250000D01*
X156400000Y-80250000D01*
G37*
X145000000Y-136250000D02*
X134600000Y-136250000D01*
X134600000Y-130250000D01*
X126400000Y-130250000D01*
X126400000Y-136250000D01*
X116000000Y-136250000D01*
X116000000Y-120750000D01*
X145000000Y-120750000D01*
X145000000Y-136250000D01*
G36*
X145000000Y-136250000D02*
G01*
X134600000Y-136250000D01*
X134600000Y-130250000D01*
X126400000Y-130250000D01*
X126400000Y-136250000D01*
X116000000Y-136250000D01*
X116000000Y-120750000D01*
X145000000Y-120750000D01*
X145000000Y-136250000D01*
G37*
D11*
G36*
X84358168Y-25627002D02*
G01*
X84358168Y-25908370D01*
X84267220Y-25856448D01*
X84174009Y-25819563D01*
X84077745Y-25796995D01*
X83982131Y-25789570D01*
X83882535Y-25798633D01*
X83820345Y-25821224D01*
X83789680Y-25846033D01*
X83771897Y-25876615D01*
X83765732Y-25914916D01*
X83775349Y-25949561D01*
X83808146Y-25984510D01*
X83876582Y-26021402D01*
X83999619Y-26059214D01*
X84011636Y-26062536D01*
X84103471Y-26084323D01*
X84216292Y-26120403D01*
X84299714Y-26165457D01*
X84359731Y-26218265D01*
X84403632Y-26284215D01*
X84431280Y-26366018D01*
X84441210Y-26467979D01*
X84432629Y-26560924D01*
X84408571Y-26637120D01*
X84370267Y-26699948D01*
X84317135Y-26751692D01*
X84253919Y-26789982D01*
X84173344Y-26819584D01*
X84071539Y-26839110D01*
X83943932Y-26846263D01*
X83833015Y-26841643D01*
X83717665Y-26827505D01*
X83601884Y-26804271D01*
X83482704Y-26771231D01*
X83482704Y-26489863D01*
X83590523Y-26543920D01*
X83698517Y-26582871D01*
X83808044Y-26607118D01*
X83911106Y-26614916D01*
X84015879Y-26605496D01*
X84081587Y-26581992D01*
X84114344Y-26556049D01*
X84133093Y-26524783D01*
X84139521Y-26486346D01*
X84128831Y-26430972D01*
X84098489Y-26391873D01*
X84042393Y-26362690D01*
X83903485Y-26321531D01*
X83814972Y-26301894D01*
X83695702Y-26265789D01*
X83608687Y-26221796D01*
X83547086Y-26171371D01*
X83501439Y-26107544D01*
X83473071Y-26029530D01*
X83462969Y-25933381D01*
X83471486Y-25846922D01*
X83495758Y-25773676D01*
X83535168Y-25710947D01*
X83590854Y-25656995D01*
X83656443Y-25616153D01*
X83736270Y-25585304D01*
X83833154Y-25565392D01*
X83950478Y-25558224D01*
X84054084Y-25562514D01*
X84157595Y-25575418D01*
X84259542Y-25596955D01*
X84358168Y-25627002D01*
G37*
G36*
X85782103Y-26752473D02*
G01*
X85698462Y-26793403D01*
X85608300Y-26822815D01*
X85513224Y-26840238D01*
X85408314Y-26846263D01*
X85294527Y-26838690D01*
X85195381Y-26817107D01*
X85108652Y-26782649D01*
X85032518Y-26735663D01*
X84965648Y-26675683D01*
X84898302Y-26586320D01*
X84848705Y-26480160D01*
X84817290Y-26353905D01*
X84806109Y-26203318D01*
X84817361Y-26052225D01*
X84848980Y-25925554D01*
X84898908Y-25819046D01*
X84966723Y-25729389D01*
X85034044Y-25669149D01*
X85110532Y-25621990D01*
X85197499Y-25587433D01*
X85296745Y-25565806D01*
X85410464Y-25558224D01*
X85507570Y-25564025D01*
X85600094Y-25581182D01*
X85690246Y-25609942D01*
X85782103Y-25652013D01*
X85782103Y-25945886D01*
X85708454Y-25892350D01*
X85628524Y-25853171D01*
X85543396Y-25828916D01*
X85455307Y-25820833D01*
X85378355Y-25827659D01*
X85314133Y-25846908D01*
X85260182Y-25877664D01*
X85214776Y-25920289D01*
X85170130Y-25991290D01*
X85141252Y-26083622D01*
X85130659Y-26203318D01*
X85141277Y-26323007D01*
X85170172Y-26414933D01*
X85214776Y-26485272D01*
X85260112Y-26527385D01*
X85314036Y-26557819D01*
X85378282Y-26576887D01*
X85455307Y-26583653D01*
X85545953Y-26575778D01*
X85629110Y-26552683D01*
X85706858Y-26514258D01*
X85782103Y-26458600D01*
X85782103Y-26752473D01*
G37*
G36*
X86794340Y-25567805D02*
G01*
X86910353Y-25593408D01*
X86996822Y-25631440D01*
X87060080Y-25680052D01*
X87107801Y-25743648D01*
X87145570Y-25832409D01*
X87171252Y-25953543D01*
X87180931Y-26115879D01*
X87180931Y-26815000D01*
X86862829Y-26815000D01*
X86862829Y-26680275D01*
X86796868Y-26750713D01*
X86714134Y-26803178D01*
X86619853Y-26835265D01*
X86514148Y-26846263D01*
X86409992Y-26838498D01*
X86322979Y-26816713D01*
X86250099Y-26782366D01*
X86189012Y-26735767D01*
X86139440Y-26677062D01*
X86103367Y-26607638D01*
X86080695Y-26525358D01*
X86074073Y-26444630D01*
X86413618Y-26444630D01*
X86419488Y-26498377D01*
X86436016Y-26542053D01*
X86462759Y-26577889D01*
X86498396Y-26604823D01*
X86542079Y-26621490D01*
X86596116Y-26627421D01*
X86675755Y-26616291D01*
X86740088Y-26584491D01*
X86792878Y-26531092D01*
X86829812Y-26463239D01*
X86853950Y-26375247D01*
X86862829Y-26261741D01*
X86862829Y-26239759D01*
X86734944Y-26239759D01*
X86614657Y-26246404D01*
X86534946Y-26263102D01*
X86484644Y-26286067D01*
X86446511Y-26322344D01*
X86422500Y-26373439D01*
X86413618Y-26444630D01*
X86074073Y-26444630D01*
X86072655Y-26427337D01*
X86082356Y-26321809D01*
X86109402Y-26236384D01*
X86152225Y-26166943D01*
X86211385Y-26110701D01*
X86281795Y-26069736D01*
X86373410Y-26037672D01*
X86491194Y-26016300D01*
X86640959Y-26008412D01*
X86862829Y-26008412D01*
X86862829Y-25956144D01*
X86856174Y-25906323D01*
X86837454Y-25867308D01*
X86806556Y-25836465D01*
X86766864Y-25815287D01*
X86713032Y-25801129D01*
X86640959Y-25795823D01*
X86527587Y-25803345D01*
X86418503Y-25825718D01*
X86311143Y-25863299D01*
X86193897Y-25920875D01*
X86193897Y-25645760D01*
X86301153Y-25606673D01*
X86409221Y-25579619D01*
X86520460Y-25563698D01*
X86640959Y-25558224D01*
X86794340Y-25567805D01*
G37*
G36*
X88487923Y-26019842D02*
G01*
X88487923Y-26815000D01*
X88169822Y-26815000D01*
X88169822Y-26069082D01*
X88164548Y-25979916D01*
X88151076Y-25918732D01*
X88132110Y-25878279D01*
X88102736Y-25847119D01*
X88062951Y-25827849D01*
X88009207Y-25820833D01*
X87955808Y-25829426D01*
X87911229Y-25854614D01*
X87873115Y-25898503D01*
X87846992Y-25952630D01*
X87829753Y-26023042D01*
X87823387Y-26113925D01*
X87823387Y-26815000D01*
X87505286Y-26815000D01*
X87505286Y-25589487D01*
X87823387Y-25589487D01*
X87823387Y-25773646D01*
X87851933Y-25709242D01*
X87890407Y-25656784D01*
X87939256Y-25614595D01*
X87996289Y-25583837D01*
X88061598Y-25564855D01*
X88137093Y-25558224D01*
X88222342Y-25566190D01*
X88292633Y-25588588D01*
X88350982Y-25624378D01*
X88399410Y-25674190D01*
X88435354Y-25733363D01*
X88463052Y-25808290D01*
X88481267Y-25902422D01*
X88487923Y-26019842D01*
G37*
G36*
X89087784Y-26305704D02*
G01*
X89087784Y-25358140D01*
X88763136Y-25358140D01*
X88763136Y-25114288D01*
X89408035Y-25114288D01*
X89408035Y-26305704D01*
X89414285Y-26402137D01*
X89430235Y-26467793D01*
X89452780Y-26510868D01*
X89487190Y-26542853D01*
X89536104Y-26563446D01*
X89604699Y-26571147D01*
X89860471Y-26571147D01*
X89860471Y-26815000D01*
X89515111Y-26815000D01*
X89400079Y-26806237D01*
X89310334Y-26782365D01*
X89240694Y-26745818D01*
X89187240Y-26697274D01*
X89147777Y-26636871D01*
X89116631Y-26555339D01*
X89095626Y-26447149D01*
X89087784Y-26305704D01*
G37*
G36*
X90253702Y-25589487D02*
G01*
X90887658Y-25589487D01*
X90887658Y-26571147D01*
X91285481Y-26571147D01*
X91285481Y-26815000D01*
X90168510Y-26815000D01*
X90168510Y-26571147D01*
X90567407Y-26571147D01*
X90567407Y-25833339D01*
X90253702Y-25833339D01*
X90253702Y-25589487D01*
G37*
G36*
X90567407Y-24995488D02*
G01*
X90887658Y-24995488D01*
X90887658Y-25370645D01*
X90567407Y-25370645D01*
X90567407Y-24995488D01*
G37*
G36*
X91990025Y-25563895D02*
G01*
X92051944Y-25580389D01*
X92108384Y-25607463D01*
X92158824Y-25644445D01*
X92201650Y-25690384D01*
X92237344Y-25746290D01*
X92237344Y-25589487D01*
X92557595Y-25589487D01*
X92557595Y-26725118D01*
X92547526Y-26873891D01*
X92520210Y-26989768D01*
X92478813Y-27079290D01*
X92424727Y-27147658D01*
X92355277Y-27200370D01*
X92264075Y-27240926D01*
X92145738Y-27267779D01*
X91993590Y-27277693D01*
X91893398Y-27273849D01*
X91794581Y-27262355D01*
X91696295Y-27243089D01*
X91594595Y-27215167D01*
X91594595Y-26921294D01*
X91686948Y-26966043D01*
X91779340Y-26996814D01*
X91874418Y-27015171D01*
X91972780Y-27021336D01*
X92061059Y-27013198D01*
X92125842Y-26991440D01*
X92172864Y-26958321D01*
X92206837Y-26912098D01*
X92229050Y-26848438D01*
X92237344Y-26761657D01*
X92237344Y-26627909D01*
X92201728Y-26682938D01*
X92160292Y-26726305D01*
X92112683Y-26759410D01*
X92059336Y-26782648D01*
X91996921Y-26797306D01*
X91923639Y-26802494D01*
X91822438Y-26791850D01*
X91734907Y-26761168D01*
X91658094Y-26710608D01*
X91590198Y-26638070D01*
X91538709Y-26553763D01*
X91500160Y-26453393D01*
X91475510Y-26333965D01*
X91466709Y-26191887D01*
X91467248Y-26182899D01*
X91786960Y-26182899D01*
X91794746Y-26292439D01*
X91816047Y-26379213D01*
X91848705Y-26447658D01*
X91895989Y-26503932D01*
X91949260Y-26535546D01*
X92011078Y-26546137D01*
X92073529Y-26535481D01*
X92127313Y-26503693D01*
X92175013Y-26447170D01*
X92208052Y-26378323D01*
X92229521Y-26291653D01*
X92237344Y-26182899D01*
X92229539Y-26074952D01*
X92208085Y-25988671D01*
X92175013Y-25919898D01*
X92127306Y-25863313D01*
X92073522Y-25831497D01*
X92011078Y-25820833D01*
X91949260Y-25831424D01*
X91895989Y-25863039D01*
X91848705Y-25919312D01*
X91816011Y-25987745D01*
X91794727Y-26074167D01*
X91786960Y-26182899D01*
X91467248Y-26182899D01*
X91475534Y-26044591D01*
X91500237Y-25920737D01*
X91538811Y-25816663D01*
X91590198Y-25729291D01*
X91658519Y-25653322D01*
X91735154Y-25600803D01*
X91821805Y-25569154D01*
X91921392Y-25558224D01*
X91990025Y-25563895D01*
G37*
G36*
X93877679Y-26018084D02*
G01*
X93877679Y-26815000D01*
X93559577Y-26815000D01*
X93559577Y-26067421D01*
X93554307Y-25978863D01*
X93540838Y-25918086D01*
X93521866Y-25877889D01*
X93492524Y-25846963D01*
X93452742Y-25827811D01*
X93398963Y-25820833D01*
X93344851Y-25829442D01*
X93300108Y-25854558D01*
X93262285Y-25898112D01*
X93236476Y-25951941D01*
X93219437Y-26021972D01*
X93213143Y-26112362D01*
X93213143Y-26815000D01*
X92895041Y-26815000D01*
X92895041Y-25114288D01*
X93213143Y-25114288D01*
X93213143Y-25771594D01*
X93241657Y-25707853D01*
X93280119Y-25655869D01*
X93329012Y-25614009D01*
X93386007Y-25583586D01*
X93451319Y-25564792D01*
X93526849Y-25558224D01*
X93612125Y-25566169D01*
X93682425Y-25588503D01*
X93740763Y-25624175D01*
X93789166Y-25673799D01*
X93825119Y-25732748D01*
X93852815Y-25807381D01*
X93871025Y-25901136D01*
X93877679Y-26018084D01*
G37*
G36*
X94808635Y-25239340D02*
G01*
X94808635Y-25589487D01*
X95227267Y-25589487D01*
X95227267Y-25833339D01*
X94808635Y-25833339D01*
X94808635Y-26416981D01*
X94813840Y-26470546D01*
X94827618Y-26508681D01*
X94848496Y-26535390D01*
X94877500Y-26553744D01*
X94920177Y-26566309D01*
X94981364Y-26571147D01*
X95227267Y-26571147D01*
X95227267Y-26815000D01*
X94958405Y-26815000D01*
X94813800Y-26807630D01*
X94709241Y-26788406D01*
X94635712Y-26760850D01*
X94585690Y-26727170D01*
X94547165Y-26680595D01*
X94516817Y-26614808D01*
X94496181Y-26524153D01*
X94488384Y-26401545D01*
X94488384Y-25833339D01*
X94175851Y-25833339D01*
X94175851Y-25589487D01*
X94488384Y-25589487D01*
X94488384Y-25239340D01*
X94808635Y-25239340D01*
G37*
G36*
X97817219Y-26183485D02*
G01*
X97996493Y-26183485D01*
X97996493Y-26458600D01*
X97817219Y-26458600D01*
X97817219Y-26815000D01*
X97507909Y-26815000D01*
X97507909Y-26458600D01*
X96860861Y-26458600D01*
X96860861Y-26183485D01*
X97095823Y-26183485D01*
X97507909Y-26183485D01*
X97507909Y-25540540D01*
X97095823Y-26183485D01*
X96860861Y-26183485D01*
X96860861Y-26147044D01*
X97479480Y-25183066D01*
X97817219Y-25183066D01*
X97817219Y-26183485D01*
G37*
G36*
X99348328Y-25589487D02*
G01*
X98936242Y-26175963D01*
X99384378Y-26815000D01*
X99010589Y-26815000D01*
X98770157Y-26402522D01*
X98530799Y-26815000D01*
X98156912Y-26815000D01*
X98609445Y-26175963D01*
X98193060Y-25589487D01*
X98566849Y-25589487D01*
X98770157Y-25954972D01*
X98974539Y-25589487D01*
X99348328Y-25589487D01*
G37*
G36*
X99655195Y-25183066D02*
G01*
X100541601Y-25183066D01*
X100541601Y-25464434D01*
X99916437Y-25464434D01*
X99916437Y-25769054D01*
X100000554Y-25746681D01*
X100095711Y-25739549D01*
X100214921Y-25749766D01*
X100318442Y-25779034D01*
X100409150Y-25826438D01*
X100489138Y-25892641D01*
X100554241Y-25973550D01*
X100600981Y-26065345D01*
X100629886Y-26170130D01*
X100639982Y-26290757D01*
X100628932Y-26417093D01*
X100597509Y-26524739D01*
X100546932Y-26617201D01*
X100476535Y-26696981D01*
X100391118Y-26760143D01*
X100290516Y-26806555D01*
X100171803Y-26835864D01*
X100031231Y-26846263D01*
X99926175Y-26841999D01*
X99819131Y-26829068D01*
X99711948Y-26807808D01*
X99600582Y-26777484D01*
X99600582Y-26489863D01*
X99692847Y-26528269D01*
X99786891Y-26555516D01*
X99882905Y-26571954D01*
X99978768Y-26577400D01*
X100090343Y-26568044D01*
X100174614Y-26542828D01*
X100237763Y-26504420D01*
X100285869Y-26450028D01*
X100315602Y-26380716D01*
X100326277Y-26291831D01*
X100316042Y-26210105D01*
X100286789Y-26142572D01*
X100238251Y-26085886D01*
X100175515Y-26044004D01*
X100098656Y-26017781D01*
X100003876Y-26008412D01*
X99917755Y-26013834D01*
X99830561Y-26030296D01*
X99744353Y-26057255D01*
X99655195Y-26095949D01*
X99655195Y-25183066D01*
G37*
G36*
X84533046Y-28615128D02*
G01*
X84476302Y-28571505D01*
X84410045Y-28540096D01*
X84337310Y-28521522D01*
X84255488Y-28515086D01*
X84158087Y-28524509D01*
X84077777Y-28551039D01*
X84010120Y-28595357D01*
X83960345Y-28655379D01*
X83938570Y-28700428D01*
X83923709Y-28756984D01*
X83916409Y-28824350D01*
X83913353Y-28938115D01*
X83913353Y-29503000D01*
X83593101Y-29503000D01*
X83593101Y-28277487D01*
X83913353Y-28277487D01*
X83913353Y-28464284D01*
X83950507Y-28399755D01*
X83998267Y-28346451D01*
X84057554Y-28303181D01*
X84124540Y-28272079D01*
X84199786Y-28252891D01*
X84284993Y-28246224D01*
X84349952Y-28250216D01*
X84413367Y-28262148D01*
X84474718Y-28281769D01*
X84533046Y-28308750D01*
X84533046Y-28615128D01*
G37*
G36*
X85440221Y-28257379D02*
G01*
X85552980Y-28288808D01*
X85647873Y-28338798D01*
X85727882Y-28407521D01*
X85791031Y-28491922D01*
X85837801Y-28593342D01*
X85867589Y-28715192D01*
X85878237Y-28861813D01*
X85878237Y-28990285D01*
X85048691Y-28990285D01*
X85059721Y-29083120D01*
X85088590Y-29153420D01*
X85133883Y-29206586D01*
X85194199Y-29244005D01*
X85275870Y-29268696D01*
X85385355Y-29277905D01*
X85494781Y-29270061D01*
X85602829Y-29246447D01*
X85709656Y-29206994D01*
X85826946Y-29146600D01*
X85826946Y-29440473D01*
X85714066Y-29481602D01*
X85599605Y-29510815D01*
X85481777Y-29528274D01*
X85354776Y-29534263D01*
X85229714Y-29526685D01*
X85122701Y-29505301D01*
X85031043Y-29471605D01*
X84952472Y-29426338D01*
X84885244Y-29369448D01*
X84829356Y-29301458D01*
X84784786Y-29221993D01*
X84751556Y-29129284D01*
X84730449Y-29021060D01*
X84722969Y-28894639D01*
X84733231Y-28753760D01*
X85052013Y-28753760D01*
X85555837Y-28752685D01*
X85546661Y-28670666D01*
X85524424Y-28608370D01*
X85490771Y-28561297D01*
X85444850Y-28526578D01*
X85384568Y-28504431D01*
X85305537Y-28496328D01*
X85234754Y-28504304D01*
X85177083Y-28526823D01*
X85129584Y-28563446D01*
X85093229Y-28611896D01*
X85067033Y-28674180D01*
X85052013Y-28753760D01*
X84733231Y-28753760D01*
X84733880Y-28744847D01*
X84764617Y-28618384D01*
X84813235Y-28511281D01*
X84879284Y-28420418D01*
X84945264Y-28358560D01*
X85019485Y-28310516D01*
X85103105Y-28275564D01*
X85197772Y-28253817D01*
X85305537Y-28246224D01*
X85440221Y-28257379D01*
G37*
G36*
X87230073Y-28277487D02*
G01*
X86840945Y-29503000D01*
X86446444Y-29503000D01*
X86057316Y-28277487D01*
X86381964Y-28277487D01*
X86643206Y-29233844D01*
X86905523Y-28277487D01*
X87230073Y-28277487D01*
G37*
G36*
X87808049Y-29102832D02*
G01*
X88172069Y-29102832D01*
X88172069Y-29503000D01*
X87808049Y-29503000D01*
X87808049Y-29102832D01*
G37*
G36*
X89139075Y-29221632D02*
G01*
X89826570Y-29221632D01*
X89826570Y-29503000D01*
X88790491Y-29503000D01*
X88790491Y-29230327D01*
X88965369Y-29044214D01*
X89343555Y-28635840D01*
X89417352Y-28542369D01*
X89461573Y-28468973D01*
X89488908Y-28395335D01*
X89497623Y-28324967D01*
X89489630Y-28254855D01*
X89467352Y-28199633D01*
X89431482Y-28155854D01*
X89383981Y-28123992D01*
X89322819Y-28103597D01*
X89244099Y-28096161D01*
X89155782Y-28103988D01*
X89050073Y-28129769D01*
X88942524Y-28169941D01*
X88825467Y-28227466D01*
X88825467Y-27927340D01*
X88942405Y-27889375D01*
X89054371Y-27862274D01*
X89165535Y-27845273D01*
X89269207Y-27839803D01*
X89399418Y-27848420D01*
X89508450Y-27872547D01*
X89599798Y-27910344D01*
X89676311Y-27961046D01*
X89740816Y-28026760D01*
X89786503Y-28102297D01*
X89814594Y-28189610D01*
X89824420Y-28291653D01*
X89816230Y-28385875D01*
X89792180Y-28472588D01*
X89750950Y-28557199D01*
X89681196Y-28660166D01*
X89597016Y-28755530D01*
X89363192Y-28995756D01*
X89139075Y-29221632D01*
G37*
G36*
X91833953Y-29221632D02*
G01*
X92521448Y-29221632D01*
X92521448Y-29503000D01*
X91485369Y-29503000D01*
X91485369Y-29230327D01*
X91660247Y-29044214D01*
X92038433Y-28635840D01*
X92112230Y-28542369D01*
X92156451Y-28468973D01*
X92183785Y-28395335D01*
X92192501Y-28324967D01*
X92184508Y-28254855D01*
X92162230Y-28199633D01*
X92126360Y-28155854D01*
X92078859Y-28123992D01*
X92017697Y-28103597D01*
X91938977Y-28096161D01*
X91850660Y-28103988D01*
X91744951Y-28129769D01*
X91637402Y-28169941D01*
X91520345Y-28227466D01*
X91520345Y-27927340D01*
X91637283Y-27889375D01*
X91749249Y-27862274D01*
X91860413Y-27845273D01*
X91964085Y-27839803D01*
X92094296Y-27848420D01*
X92203328Y-27872547D01*
X92294676Y-27910344D01*
X92371189Y-27961046D01*
X92435694Y-28026760D01*
X92481380Y-28102297D01*
X92509472Y-28189610D01*
X92519298Y-28291653D01*
X92511108Y-28385875D01*
X92487058Y-28472588D01*
X92445827Y-28557199D01*
X92376074Y-28660166D01*
X92291894Y-28755530D01*
X92058070Y-28995756D01*
X91833953Y-29221632D01*
G37*
G36*
X93486979Y-27848903D02*
G01*
X93578483Y-27874831D01*
X93657601Y-27916595D01*
X93726358Y-27974665D01*
X93785844Y-28050927D01*
X93839525Y-28156770D01*
X93881746Y-28293417D01*
X93909903Y-28467741D01*
X93920275Y-28687619D01*
X93909913Y-28906833D01*
X93881773Y-29080783D01*
X93839555Y-29217281D01*
X93785844Y-29323139D01*
X93726358Y-29399401D01*
X93657601Y-29457471D01*
X93578483Y-29499235D01*
X93486979Y-29525163D01*
X93380303Y-29534263D01*
X93274183Y-29525164D01*
X93183049Y-29499221D01*
X93104141Y-29457394D01*
X93035459Y-29399178D01*
X92975935Y-29322651D01*
X92922177Y-29216495D01*
X92883329Y-29090815D01*
X93206598Y-29090815D01*
X93217540Y-29122469D01*
X93249712Y-29186431D01*
X93287098Y-29227590D01*
X93329954Y-29251151D01*
X93380401Y-29259147D01*
X93431360Y-29251124D01*
X93474530Y-29227523D01*
X93512063Y-29186382D01*
X93544239Y-29122567D01*
X93569874Y-29028831D01*
X93588387Y-28888276D01*
X93595628Y-28686349D01*
X93588007Y-28483041D01*
X93206598Y-29090815D01*
X92883329Y-29090815D01*
X92879960Y-29079915D01*
X92851847Y-28906190D01*
X92841554Y-28688694D01*
X93166151Y-28688694D01*
X93170547Y-28858101D01*
X93546486Y-28258045D01*
X93544337Y-28251499D01*
X93512115Y-28187683D01*
X93474550Y-28146541D01*
X93431363Y-28122941D01*
X93380401Y-28114919D01*
X93329952Y-28122914D01*
X93287078Y-28146474D01*
X93249661Y-28187634D01*
X93217442Y-28251597D01*
X93191871Y-28345287D01*
X93173386Y-28486082D01*
X93166151Y-28688694D01*
X92841554Y-28688694D01*
X92841503Y-28687619D01*
X92851859Y-28468378D01*
X92879991Y-28294300D01*
X92922210Y-28157606D01*
X92975935Y-28051513D01*
X93035464Y-27974945D01*
X93104150Y-27916702D01*
X93183058Y-27874858D01*
X93274188Y-27848905D01*
X93380303Y-27839803D01*
X93486979Y-27848903D01*
G37*
G36*
X94528831Y-29221632D02*
G01*
X95216325Y-29221632D01*
X95216325Y-29503000D01*
X94180247Y-29503000D01*
X94180247Y-29230327D01*
X94355125Y-29044214D01*
X94733311Y-28635840D01*
X94807108Y-28542369D01*
X94851329Y-28468973D01*
X94878663Y-28395335D01*
X94887379Y-28324967D01*
X94879386Y-28254855D01*
X94857108Y-28199633D01*
X94821238Y-28155854D01*
X94773737Y-28123992D01*
X94712575Y-28103597D01*
X94633855Y-28096161D01*
X94545537Y-28103988D01*
X94439829Y-28129769D01*
X94332280Y-28169941D01*
X94215223Y-28227466D01*
X94215223Y-27927340D01*
X94332161Y-27889375D01*
X94444127Y-27862274D01*
X94555291Y-27845273D01*
X94658963Y-27839803D01*
X94789174Y-27848420D01*
X94898206Y-27872547D01*
X94989554Y-27910344D01*
X95066067Y-27961046D01*
X95130572Y-28026760D01*
X95176258Y-28102297D01*
X95204350Y-28189610D01*
X95214176Y-28291653D01*
X95205986Y-28385875D01*
X95181936Y-28472588D01*
X95140705Y-28557199D01*
X95070952Y-28660166D01*
X94986772Y-28755530D01*
X94752948Y-28995756D01*
X94528831Y-29221632D01*
G37*
G36*
X96282219Y-27850267D02*
G01*
X96363192Y-27863251D01*
X96444290Y-27884502D01*
X96527714Y-27914835D01*
X96527714Y-28208708D01*
X96441169Y-28164053D01*
X96362117Y-28133676D01*
X96283200Y-28114723D01*
X96209710Y-28108666D01*
X96123819Y-28116538D01*
X96052623Y-28138704D01*
X95993207Y-28174130D01*
X95943583Y-28223362D01*
X95906080Y-28282102D01*
X95876797Y-28355886D01*
X95856794Y-28447886D01*
X95847937Y-28561883D01*
X95906400Y-28500414D01*
X95979047Y-28456468D01*
X96063393Y-28430575D01*
X96167016Y-28421297D01*
X96275745Y-28430875D01*
X96366710Y-28457911D01*
X96443320Y-28501125D01*
X96507979Y-28561004D01*
X96558036Y-28633383D01*
X96595521Y-28721291D01*
X96619594Y-28827863D01*
X96628244Y-28956970D01*
X96618619Y-29094962D01*
X96591747Y-29209409D01*
X96549705Y-29304381D01*
X96493227Y-29383125D01*
X96420982Y-29447783D01*
X96335545Y-29494571D01*
X96234271Y-29523879D01*
X96113478Y-29534263D01*
X95993716Y-29525205D01*
X95893532Y-29499765D01*
X95809480Y-29459592D01*
X95738895Y-29404982D01*
X95680094Y-29334863D01*
X95636904Y-29257314D01*
X95600197Y-29158654D01*
X95571310Y-29034643D01*
X95563934Y-28975240D01*
X95889459Y-28975240D01*
X95896589Y-29069890D01*
X95915749Y-29141583D01*
X95944658Y-29195351D01*
X95986471Y-29237377D01*
X96038725Y-29262697D01*
X96104783Y-29271653D01*
X96170884Y-29262722D01*
X96223527Y-29237413D01*
X96265983Y-29195351D01*
X96295489Y-29141497D01*
X96315003Y-29069802D01*
X96322257Y-28975240D01*
X96315013Y-28880612D01*
X96295505Y-28808701D01*
X96265983Y-28754542D01*
X96223482Y-28712124D01*
X96170837Y-28686640D01*
X96104783Y-28677654D01*
X96038725Y-28686610D01*
X95986471Y-28711929D01*
X95944658Y-28753956D01*
X95915787Y-28807739D01*
X95896609Y-28879776D01*
X95889459Y-28975240D01*
X95563934Y-28975240D01*
X95552164Y-28880455D01*
X95545174Y-28690745D01*
X95553245Y-28514053D01*
X95575691Y-28366213D01*
X95610283Y-28243105D01*
X95655415Y-28141068D01*
X95710184Y-28056984D01*
X95780648Y-27982888D01*
X95863231Y-27924978D01*
X95959695Y-27882402D01*
X96072633Y-27855556D01*
X96205314Y-27846056D01*
X96282219Y-27850267D01*
G37*
G36*
X96860861Y-28708917D02*
G01*
X98019452Y-28708917D01*
X98019452Y-29002790D01*
X96860861Y-29002790D01*
X96860861Y-28708917D01*
G37*
G36*
X98876735Y-27848903D02*
G01*
X98968238Y-27874831D01*
X99047356Y-27916595D01*
X99116113Y-27974665D01*
X99175600Y-28050927D01*
X99229281Y-28156770D01*
X99271502Y-28293417D01*
X99299658Y-28467741D01*
X99310031Y-28687619D01*
X99299669Y-28906833D01*
X99271529Y-29080783D01*
X99229310Y-29217281D01*
X99175600Y-29323139D01*
X99116113Y-29399401D01*
X99047356Y-29457471D01*
X98968238Y-29499235D01*
X98876735Y-29525163D01*
X98770059Y-29534263D01*
X98663938Y-29525164D01*
X98572805Y-29499221D01*
X98493897Y-29457394D01*
X98425215Y-29399178D01*
X98365690Y-29322651D01*
X98311932Y-29216495D01*
X98273085Y-29090815D01*
X98596353Y-29090815D01*
X98607295Y-29122469D01*
X98639468Y-29186431D01*
X98676854Y-29227590D01*
X98719710Y-29251151D01*
X98770157Y-29259147D01*
X98821116Y-29251124D01*
X98864286Y-29227523D01*
X98901819Y-29186382D01*
X98933995Y-29122567D01*
X98959630Y-29028831D01*
X98978143Y-28888276D01*
X98985383Y-28686349D01*
X98977763Y-28483041D01*
X98596353Y-29090815D01*
X98273085Y-29090815D01*
X98269716Y-29079915D01*
X98241603Y-28906190D01*
X98231310Y-28688694D01*
X98555907Y-28688694D01*
X98560303Y-28858101D01*
X98936242Y-28258045D01*
X98934092Y-28251499D01*
X98901871Y-28187683D01*
X98864306Y-28146541D01*
X98821118Y-28122941D01*
X98770157Y-28114919D01*
X98719708Y-28122914D01*
X98676834Y-28146474D01*
X98639416Y-28187634D01*
X98607198Y-28251597D01*
X98581627Y-28345287D01*
X98563142Y-28486082D01*
X98555907Y-28688694D01*
X98231310Y-28688694D01*
X98231259Y-28687619D01*
X98241615Y-28468378D01*
X98269747Y-28294300D01*
X98311965Y-28157606D01*
X98365690Y-28051513D01*
X98425220Y-27974945D01*
X98493905Y-27916702D01*
X98572814Y-27874858D01*
X98663944Y-27848905D01*
X98770059Y-27839803D01*
X98876735Y-27848903D01*
G37*
G36*
X100044323Y-28771443D02*
G01*
X99871594Y-28771443D01*
X99871594Y-28490076D01*
X100044323Y-28490076D01*
X100123276Y-28483993D01*
X100184094Y-28467511D01*
X100230631Y-28442399D01*
X100267312Y-28406317D01*
X100289137Y-28362364D01*
X100296772Y-28307968D01*
X100289078Y-28250516D01*
X100267161Y-28204053D01*
X100230631Y-28165916D01*
X100183833Y-28138946D01*
X100123010Y-28121377D01*
X100044323Y-28114919D01*
X99951176Y-28120314D01*
X99847561Y-28137389D01*
X99742332Y-28164363D01*
X99630087Y-28202455D01*
X99630087Y-27908582D01*
X99742624Y-27878993D01*
X99851957Y-27857584D01*
X99960361Y-27844141D01*
X100061810Y-27839803D01*
X100192117Y-27847938D01*
X100300261Y-27870593D01*
X100389890Y-27905818D01*
X100464030Y-27952644D01*
X100527025Y-28014238D01*
X100571489Y-28085217D01*
X100598782Y-28167442D01*
X100608328Y-28263809D01*
X100598491Y-28357743D01*
X100570564Y-28436060D01*
X100525188Y-28502092D01*
X100464445Y-28554971D01*
X100386673Y-28595548D01*
X100288077Y-28623139D01*
X100399582Y-28653831D01*
X100486942Y-28700496D01*
X100554692Y-28762455D01*
X100604361Y-28839612D01*
X100635446Y-28933382D01*
X100646528Y-29048122D01*
X100636067Y-29164765D01*
X100606632Y-29261510D01*
X100559673Y-29342253D01*
X100494609Y-29409699D01*
X100416381Y-29460960D01*
X100319457Y-29499854D01*
X100199917Y-29525113D01*
X100053018Y-29534263D01*
X99930244Y-29529015D01*
X99809849Y-29513355D01*
X99692154Y-29487697D01*
X99580847Y-29452979D01*
X99580847Y-29152853D01*
X99686920Y-29198417D01*
X99802718Y-29232085D01*
X99923819Y-29252266D01*
X100053018Y-29259147D01*
X100138554Y-29251629D01*
X100206574Y-29230867D01*
X100260722Y-29198380D01*
X100303164Y-29153196D01*
X100328428Y-29099474D01*
X100337219Y-29034444D01*
X100327979Y-28953795D01*
X100302222Y-28890282D01*
X100260722Y-28839929D01*
X100205832Y-28803382D01*
X100135192Y-28779977D01*
X100044323Y-28771443D01*
G37*
G36*
X100903178Y-28708917D02*
G01*
X102061769Y-28708917D01*
X102061769Y-29002790D01*
X100903178Y-29002790D01*
X100903178Y-28708917D01*
G37*
G36*
X102919052Y-27848903D02*
G01*
X103010555Y-27874831D01*
X103089673Y-27916595D01*
X103158430Y-27974665D01*
X103217916Y-28050927D01*
X103271598Y-28156770D01*
X103313819Y-28293417D01*
X103341975Y-28467741D01*
X103352348Y-28687619D01*
X103341986Y-28906833D01*
X103313846Y-29080783D01*
X103271627Y-29217281D01*
X103217916Y-29323139D01*
X103158430Y-29399401D01*
X103089673Y-29457471D01*
X103010555Y-29499235D01*
X102919052Y-29525163D01*
X102812376Y-29534263D01*
X102706255Y-29525164D01*
X102615122Y-29499221D01*
X102536214Y-29457394D01*
X102467532Y-29399178D01*
X102408007Y-29322651D01*
X102354249Y-29216495D01*
X102315402Y-29090815D01*
X102638670Y-29090815D01*
X102649612Y-29122469D01*
X102681785Y-29186431D01*
X102719171Y-29227590D01*
X102762027Y-29251151D01*
X102812473Y-29259147D01*
X102863433Y-29251124D01*
X102906603Y-29227523D01*
X102944136Y-29186382D01*
X102976311Y-29122567D01*
X103001947Y-29028831D01*
X103020459Y-28888276D01*
X103027700Y-28686349D01*
X103020080Y-28483041D01*
X102638670Y-29090815D01*
X102315402Y-29090815D01*
X102312033Y-29079915D01*
X102283920Y-28906190D01*
X102273627Y-28688694D01*
X102598224Y-28688694D01*
X102602620Y-28858101D01*
X102978558Y-28258045D01*
X102976409Y-28251499D01*
X102944188Y-28187683D01*
X102906623Y-28146541D01*
X102863435Y-28122941D01*
X102812473Y-28114919D01*
X102762024Y-28122914D01*
X102719150Y-28146474D01*
X102681733Y-28187634D01*
X102649515Y-28251597D01*
X102623944Y-28345287D01*
X102605459Y-28486082D01*
X102598224Y-28688694D01*
X102273627Y-28688694D01*
X102273576Y-28687619D01*
X102283932Y-28468378D01*
X102312063Y-28294300D01*
X102354282Y-28157606D01*
X102408007Y-28051513D01*
X102467537Y-27974945D01*
X102536222Y-27916702D01*
X102615130Y-27874858D01*
X102706261Y-27848905D01*
X102812376Y-27839803D01*
X102919052Y-27848903D01*
G37*
G36*
X103692041Y-29221632D02*
G01*
X104052739Y-29221632D01*
X104052739Y-28158687D01*
X103717247Y-28246224D01*
X103717247Y-27952351D01*
X104054986Y-27871066D01*
X104366444Y-27871066D01*
X104366444Y-29221632D01*
X104727142Y-29221632D01*
X104727142Y-29503000D01*
X103692041Y-29503000D01*
X103692041Y-29221632D01*
G37*
G36*
X79768249Y-31820607D02*
G01*
X79992341Y-31820607D01*
X79992341Y-32164501D01*
X79768249Y-32164501D01*
X79768249Y-32610000D01*
X79381612Y-32610000D01*
X79381612Y-32164501D01*
X78572802Y-32164501D01*
X78572802Y-31820607D01*
X78866504Y-31820607D01*
X79381612Y-31820607D01*
X79381612Y-31016926D01*
X78866504Y-31820607D01*
X78572802Y-31820607D01*
X78572802Y-31775055D01*
X79346075Y-30570083D01*
X79768249Y-30570083D01*
X79768249Y-31820607D01*
G37*
G36*
X80381420Y-30570083D02*
G01*
X81489428Y-30570083D01*
X81489428Y-30921793D01*
X80707973Y-30921793D01*
X80707973Y-31302568D01*
X80813120Y-31274602D01*
X80932066Y-31265687D01*
X81081078Y-31278457D01*
X81210479Y-31315042D01*
X81323864Y-31374297D01*
X81423849Y-31457051D01*
X81505228Y-31558188D01*
X81563653Y-31672932D01*
X81599784Y-31803913D01*
X81612404Y-31954696D01*
X81598592Y-32112617D01*
X81559314Y-32247174D01*
X81496092Y-32362752D01*
X81408095Y-32462477D01*
X81301324Y-32541429D01*
X81175572Y-32599443D01*
X81027181Y-32636080D01*
X80851466Y-32649078D01*
X80720145Y-32643749D01*
X80586340Y-32627585D01*
X80452362Y-32601011D01*
X80313154Y-32563105D01*
X80313154Y-32203579D01*
X80428486Y-32251586D01*
X80546040Y-32285645D01*
X80666058Y-32306193D01*
X80785886Y-32313000D01*
X80925355Y-32301305D01*
X81030694Y-32269785D01*
X81109630Y-32221775D01*
X81169762Y-32153785D01*
X81206929Y-32067145D01*
X81220272Y-31956039D01*
X81207479Y-31853881D01*
X81170913Y-31769465D01*
X81110241Y-31698607D01*
X81031820Y-31646255D01*
X80935746Y-31613477D01*
X80817272Y-31601765D01*
X80709621Y-31608542D01*
X80600628Y-31629120D01*
X80492867Y-31662819D01*
X80381420Y-31711186D01*
X80381420Y-30570083D01*
G37*
G36*
X82776943Y-30542379D02*
G01*
X82891322Y-30574788D01*
X82990220Y-30626994D01*
X83076166Y-30699582D01*
X83150524Y-30794909D01*
X83217625Y-30927213D01*
X83270401Y-31098022D01*
X83305597Y-31315926D01*
X83318563Y-31590774D01*
X83305610Y-31864791D01*
X83270436Y-32082229D01*
X83217662Y-32252852D01*
X83150524Y-32385174D01*
X83076166Y-32480501D01*
X82990220Y-32553089D01*
X82891322Y-32605294D01*
X82776943Y-32637704D01*
X82643598Y-32649078D01*
X82510947Y-32637705D01*
X82397030Y-32605276D01*
X82298395Y-32552993D01*
X82212543Y-32480223D01*
X82138137Y-32384563D01*
X82070940Y-32251869D01*
X82022380Y-32094769D01*
X82426466Y-32094769D01*
X82440143Y-32134337D01*
X82480359Y-32214289D01*
X82527092Y-32265738D01*
X82580661Y-32295189D01*
X82643720Y-32305184D01*
X82707419Y-32295155D01*
X82761381Y-32265654D01*
X82808298Y-32214228D01*
X82848517Y-32134459D01*
X82880561Y-32017289D01*
X82903702Y-31841595D01*
X82912753Y-31589187D01*
X82903228Y-31335052D01*
X82426466Y-32094769D01*
X82022380Y-32094769D01*
X82018169Y-32081144D01*
X81983028Y-31863988D01*
X81970162Y-31592117D01*
X82375907Y-31592117D01*
X82381403Y-31803876D01*
X82851326Y-31053806D01*
X82848639Y-31045624D01*
X82808363Y-30965854D01*
X82761407Y-30914426D01*
X82707422Y-30884927D01*
X82643720Y-30874898D01*
X82580659Y-30884893D01*
X82527066Y-30914342D01*
X82480295Y-30965793D01*
X82440021Y-31045746D01*
X82408058Y-31162859D01*
X82384951Y-31338853D01*
X82375907Y-31592117D01*
X81970162Y-31592117D01*
X81970098Y-31590774D01*
X81983043Y-31316723D01*
X82018207Y-31099125D01*
X82070981Y-30928258D01*
X82138137Y-30795642D01*
X82212549Y-30699931D01*
X82298406Y-30627127D01*
X82397041Y-30574823D01*
X82510954Y-30542382D01*
X82643598Y-30531004D01*
X82776943Y-30542379D01*
G37*
G36*
X84949616Y-31616053D02*
G01*
X84949616Y-32610000D01*
X84551989Y-32610000D01*
X84551989Y-31677602D01*
X84545398Y-31566145D01*
X84528557Y-31489665D01*
X84504850Y-31439099D01*
X84468132Y-31400149D01*
X84418401Y-31376061D01*
X84351221Y-31367292D01*
X84284472Y-31378033D01*
X84228748Y-31409518D01*
X84181106Y-31464378D01*
X84148452Y-31532038D01*
X84126904Y-31620053D01*
X84118946Y-31733656D01*
X84118946Y-32610000D01*
X83721319Y-32610000D01*
X83721319Y-31078108D01*
X84118946Y-31078108D01*
X84118946Y-31308307D01*
X84154629Y-31227803D01*
X84202720Y-31162230D01*
X84263783Y-31109494D01*
X84335073Y-31071047D01*
X84416710Y-31047319D01*
X84511078Y-31039030D01*
X84617639Y-31048988D01*
X84705503Y-31076986D01*
X84778439Y-31121722D01*
X84838974Y-31183988D01*
X84883905Y-31257954D01*
X84918527Y-31351613D01*
X84941296Y-31469278D01*
X84949616Y-31616053D01*
G37*
G36*
X86113311Y-31228562D02*
G01*
X86166333Y-31142145D01*
X86228106Y-31085436D01*
X86303652Y-31051191D01*
X86398953Y-31039030D01*
X86495972Y-31048762D01*
X86570952Y-31075481D01*
X86628902Y-31117442D01*
X86672872Y-31175683D01*
X86708899Y-31273294D01*
X86737018Y-31450374D01*
X86748709Y-31743792D01*
X86748709Y-32610000D01*
X86420813Y-32610000D01*
X86420813Y-31622892D01*
X86412540Y-31465600D01*
X86394801Y-31393670D01*
X86372865Y-31361691D01*
X86342401Y-31342797D01*
X86300524Y-31336029D01*
X86258772Y-31342884D01*
X86227796Y-31362192D01*
X86204903Y-31395136D01*
X86186173Y-31467965D01*
X86177547Y-31622892D01*
X86177547Y-32610000D01*
X85853803Y-32610000D01*
X85853803Y-31622892D01*
X85845177Y-31467965D01*
X85826448Y-31395136D01*
X85803555Y-31362192D01*
X85772578Y-31342884D01*
X85730827Y-31336029D01*
X85688942Y-31342794D01*
X85658435Y-31361688D01*
X85636427Y-31393670D01*
X85618773Y-31465595D01*
X85610538Y-31622892D01*
X85610538Y-32610000D01*
X85282642Y-32610000D01*
X85282642Y-31078108D01*
X85573657Y-31078108D01*
X85573657Y-31233935D01*
X85618421Y-31152890D01*
X85682956Y-31091542D01*
X85762371Y-31052203D01*
X85850995Y-31039030D01*
X85939654Y-31052779D01*
X86020377Y-31094228D01*
X86065924Y-31135028D01*
X86096230Y-31179484D01*
X86113311Y-31228562D01*
G37*
G36*
X88802914Y-30570083D02*
G01*
X89910921Y-30570083D01*
X89910921Y-30921793D01*
X89129466Y-30921793D01*
X89129466Y-31302568D01*
X89234613Y-31274602D01*
X89353559Y-31265687D01*
X89502572Y-31278457D01*
X89631973Y-31315042D01*
X89745358Y-31374297D01*
X89845342Y-31457051D01*
X89926721Y-31558188D01*
X89985146Y-31672932D01*
X90021278Y-31803913D01*
X90033898Y-31954696D01*
X90020085Y-32112617D01*
X89980807Y-32247174D01*
X89917585Y-32362752D01*
X89829589Y-32462477D01*
X89722817Y-32541429D01*
X89597066Y-32599443D01*
X89448674Y-32636080D01*
X89272959Y-32649078D01*
X89141638Y-32643749D01*
X89007833Y-32627585D01*
X88873855Y-32601011D01*
X88734648Y-32563105D01*
X88734648Y-32203579D01*
X88849979Y-32251586D01*
X88967533Y-32285645D01*
X89087552Y-32306193D01*
X89207380Y-32313000D01*
X89346848Y-32301305D01*
X89452187Y-32269785D01*
X89531124Y-32221775D01*
X89591256Y-32153785D01*
X89628423Y-32067145D01*
X89641766Y-31956039D01*
X89628973Y-31853881D01*
X89592406Y-31769465D01*
X89531734Y-31698607D01*
X89453314Y-31646255D01*
X89357240Y-31613477D01*
X89238765Y-31601765D01*
X89131114Y-31608542D01*
X89022122Y-31629120D01*
X88914361Y-31662819D01*
X88802914Y-31711186D01*
X88802914Y-30570083D01*
G37*
G36*
X90816452Y-32258290D02*
G01*
X91675820Y-32258290D01*
X91675820Y-32610000D01*
X90380722Y-32610000D01*
X90380722Y-32269159D01*
X90599320Y-32036517D01*
X91072052Y-31526050D01*
X91164298Y-31409211D01*
X91219575Y-31317466D01*
X91253743Y-31225419D01*
X91264637Y-31137459D01*
X91254646Y-31049818D01*
X91226798Y-30980792D01*
X91181961Y-30926067D01*
X91122584Y-30886240D01*
X91046132Y-30860746D01*
X90947732Y-30851451D01*
X90837335Y-30861235D01*
X90705199Y-30893461D01*
X90570763Y-30943677D01*
X90424442Y-31015582D01*
X90424442Y-30640425D01*
X90570615Y-30592968D01*
X90710572Y-30559092D01*
X90849527Y-30537841D01*
X90979117Y-30531004D01*
X91141881Y-30541775D01*
X91278171Y-30571934D01*
X91392355Y-30619180D01*
X91487997Y-30682557D01*
X91568628Y-30764701D01*
X91625736Y-30859121D01*
X91660851Y-30968262D01*
X91673134Y-31095816D01*
X91662896Y-31213594D01*
X91632833Y-31321985D01*
X91581295Y-31427749D01*
X91494104Y-31556458D01*
X91388878Y-31675663D01*
X91096598Y-31975945D01*
X90816452Y-32258290D01*
G37*
G36*
X92171511Y-30570083D02*
G01*
X93279519Y-30570083D01*
X93279519Y-30921793D01*
X92498064Y-30921793D01*
X92498064Y-31302568D01*
X92603210Y-31274602D01*
X92722157Y-31265687D01*
X92871169Y-31278457D01*
X93000570Y-31315042D01*
X93113955Y-31374297D01*
X93213940Y-31457051D01*
X93295318Y-31558188D01*
X93353743Y-31672932D01*
X93389875Y-31803913D01*
X93402495Y-31954696D01*
X93388683Y-32112617D01*
X93349404Y-32247174D01*
X93286183Y-32362752D01*
X93198186Y-32462477D01*
X93091414Y-32541429D01*
X92965663Y-32599443D01*
X92817271Y-32636080D01*
X92641556Y-32649078D01*
X92510236Y-32643749D01*
X92376431Y-32627585D01*
X92242452Y-32601011D01*
X92103245Y-32563105D01*
X92103245Y-32203579D01*
X92218577Y-32251586D01*
X92336131Y-32285645D01*
X92456149Y-32306193D01*
X92575977Y-32313000D01*
X92715446Y-32301305D01*
X92820785Y-32269785D01*
X92899721Y-32221775D01*
X92959853Y-32153785D01*
X92997020Y-32067145D01*
X93010363Y-31956039D01*
X92997570Y-31853881D01*
X92961004Y-31769465D01*
X92900332Y-31698607D01*
X92821911Y-31646255D01*
X92725837Y-31613477D01*
X92607362Y-31601765D01*
X92499712Y-31608542D01*
X92390719Y-31629120D01*
X92282958Y-31662819D01*
X92171511Y-31711186D01*
X92171511Y-30570083D01*
G37*
G36*
X95055408Y-31616053D02*
G01*
X95055408Y-32610000D01*
X94657781Y-32610000D01*
X94657781Y-31677602D01*
X94651190Y-31566145D01*
X94634349Y-31489665D01*
X94610642Y-31439099D01*
X94573924Y-31400149D01*
X94524193Y-31376061D01*
X94457013Y-31367292D01*
X94390264Y-31378033D01*
X94334540Y-31409518D01*
X94286898Y-31464378D01*
X94254244Y-31532038D01*
X94232696Y-31620053D01*
X94224739Y-31733656D01*
X94224739Y-32610000D01*
X93827111Y-32610000D01*
X93827111Y-31078108D01*
X94224739Y-31078108D01*
X94224739Y-31308307D01*
X94260421Y-31227803D01*
X94308512Y-31162230D01*
X94369575Y-31109494D01*
X94440865Y-31071047D01*
X94522502Y-31047319D01*
X94616870Y-31039030D01*
X94723431Y-31048988D01*
X94811295Y-31076986D01*
X94884231Y-31121722D01*
X94944766Y-31183988D01*
X94989697Y-31257954D01*
X95024319Y-31351613D01*
X95047088Y-31469278D01*
X95055408Y-31616053D01*
G37*
G36*
X96219104Y-31228562D02*
G01*
X96272126Y-31142145D01*
X96333898Y-31085436D01*
X96409444Y-31051191D01*
X96504746Y-31039030D01*
X96601764Y-31048762D01*
X96676744Y-31075481D01*
X96734694Y-31117442D01*
X96778664Y-31175683D01*
X96814691Y-31273294D01*
X96842810Y-31450374D01*
X96854501Y-31743792D01*
X96854501Y-32610000D01*
X96526605Y-32610000D01*
X96526605Y-31622892D01*
X96518332Y-31465600D01*
X96500593Y-31393670D01*
X96478657Y-31361691D01*
X96448194Y-31342797D01*
X96406316Y-31336029D01*
X96364564Y-31342884D01*
X96333588Y-31362192D01*
X96310695Y-31395136D01*
X96291965Y-31467965D01*
X96283339Y-31622892D01*
X96283339Y-32610000D01*
X95959595Y-32610000D01*
X95959595Y-31622892D01*
X95950969Y-31467965D01*
X95932240Y-31395136D01*
X95909347Y-31362192D01*
X95878370Y-31342884D01*
X95836619Y-31336029D01*
X95794734Y-31342794D01*
X95764227Y-31361688D01*
X95742219Y-31393670D01*
X95724565Y-31465595D01*
X95716330Y-31622892D01*
X95716330Y-32610000D01*
X95388434Y-32610000D01*
X95388434Y-31078108D01*
X95679449Y-31078108D01*
X95679449Y-31233935D01*
X95724213Y-31152890D01*
X95788748Y-31091542D01*
X95868163Y-31052203D01*
X95956787Y-31039030D01*
X96045446Y-31052779D01*
X96126169Y-31094228D01*
X96171716Y-31135028D01*
X96202022Y-31179484D01*
X96219104Y-31228562D01*
G37*
G36*
X99745382Y-30544083D02*
G01*
X99846598Y-30560314D01*
X99947971Y-30586878D01*
X100052251Y-30624794D01*
X100052251Y-30992135D01*
X99944069Y-30936316D01*
X99845255Y-30898346D01*
X99746608Y-30874654D01*
X99654746Y-30867083D01*
X99547382Y-30876923D01*
X99458386Y-30904630D01*
X99384117Y-30948912D01*
X99322087Y-31010453D01*
X99275208Y-31083878D01*
X99238605Y-31176107D01*
X99213601Y-31291108D01*
X99202530Y-31433604D01*
X99275608Y-31356768D01*
X99366417Y-31301835D01*
X99471849Y-31269469D01*
X99601378Y-31257871D01*
X99737289Y-31269844D01*
X99850996Y-31303639D01*
X99946759Y-31357657D01*
X100027582Y-31432505D01*
X100090153Y-31522978D01*
X100137009Y-31632864D01*
X100167101Y-31766079D01*
X100177914Y-31927463D01*
X100165882Y-32099953D01*
X100132292Y-32243012D01*
X100079740Y-32361726D01*
X100009142Y-32460157D01*
X99918836Y-32540979D01*
X99812040Y-32599464D01*
X99685447Y-32636099D01*
X99534456Y-32649078D01*
X99384753Y-32637756D01*
X99259523Y-32605956D01*
X99154458Y-32555740D01*
X99066227Y-32487478D01*
X98992725Y-32399829D01*
X98938738Y-32302893D01*
X98892854Y-32179567D01*
X98856745Y-32024553D01*
X98847525Y-31950300D01*
X99254431Y-31950300D01*
X99263344Y-32068613D01*
X99287295Y-32158229D01*
X99323430Y-32225439D01*
X99375697Y-32277972D01*
X99441014Y-32309621D01*
X99523587Y-32320816D01*
X99606214Y-32309652D01*
X99672017Y-32278017D01*
X99725087Y-32225439D01*
X99761969Y-32158122D01*
X99786362Y-32068502D01*
X99795429Y-31950300D01*
X99786374Y-31832015D01*
X99761989Y-31742126D01*
X99725087Y-31674427D01*
X99671960Y-31621405D01*
X99606155Y-31589550D01*
X99523587Y-31578318D01*
X99441014Y-31589512D01*
X99375697Y-31621162D01*
X99323430Y-31673695D01*
X99287342Y-31740923D01*
X99263369Y-31830971D01*
X99254431Y-31950300D01*
X98847525Y-31950300D01*
X98832814Y-31831819D01*
X98824076Y-31594682D01*
X98834164Y-31373816D01*
X98862221Y-31189016D01*
X98905462Y-31035132D01*
X98961877Y-30907585D01*
X99030339Y-30802480D01*
X99118418Y-30709860D01*
X99221647Y-30637472D01*
X99342226Y-30584253D01*
X99483399Y-30550695D01*
X99649250Y-30538820D01*
X99745382Y-30544083D01*
G37*
G36*
X101429681Y-30544083D02*
G01*
X101530897Y-30560314D01*
X101632269Y-30586878D01*
X101736549Y-30624794D01*
X101736549Y-30992135D01*
X101628368Y-30936316D01*
X101529554Y-30898346D01*
X101430907Y-30874654D01*
X101339044Y-30867083D01*
X101231681Y-30876923D01*
X101142685Y-30904630D01*
X101068415Y-30948912D01*
X101006385Y-31010453D01*
X100959507Y-31083878D01*
X100922903Y-31176107D01*
X100897899Y-31291108D01*
X100886829Y-31433604D01*
X100959907Y-31356768D01*
X101050716Y-31301835D01*
X101156148Y-31269469D01*
X101285677Y-31257871D01*
X101421588Y-31269844D01*
X101535295Y-31303639D01*
X101631057Y-31357657D01*
X101711881Y-31432505D01*
X101774451Y-31522978D01*
X101821308Y-31632864D01*
X101851400Y-31766079D01*
X101862212Y-31927463D01*
X101850180Y-32099953D01*
X101816590Y-32243012D01*
X101764038Y-32361726D01*
X101693441Y-32460157D01*
X101603135Y-32540979D01*
X101496338Y-32599464D01*
X101369746Y-32636099D01*
X101218755Y-32649078D01*
X101069051Y-32637756D01*
X100943822Y-32605956D01*
X100838756Y-32555740D01*
X100750526Y-32487478D01*
X100677024Y-32399829D01*
X100623037Y-32302893D01*
X100577152Y-32179567D01*
X100541044Y-32024553D01*
X100531824Y-31950300D01*
X100938730Y-31950300D01*
X100947643Y-32068613D01*
X100971593Y-32158229D01*
X101007729Y-32225439D01*
X101059996Y-32277972D01*
X101125312Y-32309621D01*
X101207886Y-32320816D01*
X101290512Y-32309652D01*
X101356316Y-32278017D01*
X101409386Y-32225439D01*
X101446268Y-32158122D01*
X101470661Y-32068502D01*
X101479728Y-31950300D01*
X101470672Y-31832015D01*
X101446288Y-31742126D01*
X101409386Y-31674427D01*
X101356259Y-31621405D01*
X101290453Y-31589550D01*
X101207886Y-31578318D01*
X101125312Y-31589512D01*
X101059996Y-31621162D01*
X101007729Y-31673695D01*
X100971641Y-31740923D01*
X100947668Y-31830971D01*
X100938730Y-31950300D01*
X100531824Y-31950300D01*
X100517112Y-31831819D01*
X100508374Y-31594682D01*
X100518463Y-31373816D01*
X100546520Y-31189016D01*
X100589760Y-31035132D01*
X100646176Y-30907585D01*
X100714637Y-30802480D01*
X100802717Y-30709860D01*
X100905946Y-30637472D01*
X101026525Y-30584253D01*
X101167698Y-30550695D01*
X101333549Y-30538820D01*
X101429681Y-30544083D01*
G37*
G36*
X102277303Y-30570083D02*
G01*
X103385311Y-30570083D01*
X103385311Y-30921793D01*
X102603856Y-30921793D01*
X102603856Y-31302568D01*
X102709002Y-31274602D01*
X102827949Y-31265687D01*
X102976961Y-31278457D01*
X103106362Y-31315042D01*
X103219747Y-31374297D01*
X103319732Y-31457051D01*
X103401110Y-31558188D01*
X103459535Y-31672932D01*
X103495667Y-31803913D01*
X103508287Y-31954696D01*
X103494475Y-32112617D01*
X103455196Y-32247174D01*
X103391975Y-32362752D01*
X103303978Y-32462477D01*
X103197207Y-32541429D01*
X103071455Y-32599443D01*
X102923063Y-32636080D01*
X102747348Y-32649078D01*
X102616028Y-32643749D01*
X102482223Y-32627585D01*
X102348244Y-32601011D01*
X102209037Y-32563105D01*
X102209037Y-32203579D01*
X102324369Y-32251586D01*
X102441923Y-32285645D01*
X102561941Y-32306193D01*
X102681769Y-32313000D01*
X102821238Y-32301305D01*
X102926577Y-32269785D01*
X103005513Y-32221775D01*
X103065645Y-32153785D01*
X103102812Y-32067145D01*
X103116155Y-31956039D01*
X103103362Y-31853881D01*
X103066796Y-31769465D01*
X103006124Y-31698607D01*
X102927703Y-31646255D01*
X102831629Y-31613477D01*
X102713154Y-31601765D01*
X102605504Y-31608542D01*
X102496511Y-31629120D01*
X102388750Y-31662819D01*
X102277303Y-31711186D01*
X102277303Y-30570083D01*
G37*
G36*
X105161201Y-31616053D02*
G01*
X105161201Y-32610000D01*
X104763573Y-32610000D01*
X104763573Y-31677602D01*
X104756982Y-31566145D01*
X104740141Y-31489665D01*
X104716434Y-31439099D01*
X104679716Y-31400149D01*
X104629985Y-31376061D01*
X104562806Y-31367292D01*
X104496056Y-31378033D01*
X104440332Y-31409518D01*
X104392690Y-31464378D01*
X104360036Y-31532038D01*
X104338488Y-31620053D01*
X104330531Y-31733656D01*
X104330531Y-32610000D01*
X103932903Y-32610000D01*
X103932903Y-31078108D01*
X104330531Y-31078108D01*
X104330531Y-31308307D01*
X104366213Y-31227803D01*
X104414304Y-31162230D01*
X104475367Y-31109494D01*
X104546657Y-31071047D01*
X104628294Y-31047319D01*
X104722662Y-31039030D01*
X104829223Y-31048988D01*
X104917087Y-31076986D01*
X104990023Y-31121722D01*
X105050558Y-31183988D01*
X105095489Y-31257954D01*
X105130111Y-31351613D01*
X105152880Y-31469278D01*
X105161201Y-31616053D01*
G37*
G36*
X106324896Y-31228562D02*
G01*
X106377918Y-31142145D01*
X106439690Y-31085436D01*
X106515236Y-31051191D01*
X106610538Y-31039030D01*
X106707556Y-31048762D01*
X106782536Y-31075481D01*
X106840486Y-31117442D01*
X106884456Y-31175683D01*
X106920483Y-31273294D01*
X106948602Y-31450374D01*
X106960293Y-31743792D01*
X106960293Y-32610000D01*
X106632397Y-32610000D01*
X106632397Y-31622892D01*
X106624124Y-31465600D01*
X106606385Y-31393670D01*
X106584449Y-31361691D01*
X106553986Y-31342797D01*
X106512108Y-31336029D01*
X106470357Y-31342884D01*
X106439380Y-31362192D01*
X106416487Y-31395136D01*
X106397757Y-31467965D01*
X106389131Y-31622892D01*
X106389131Y-32610000D01*
X106065388Y-32610000D01*
X106065388Y-31622892D01*
X106056761Y-31467965D01*
X106038032Y-31395136D01*
X106015139Y-31362192D01*
X105984162Y-31342884D01*
X105942411Y-31336029D01*
X105900526Y-31342794D01*
X105870019Y-31361688D01*
X105848011Y-31393670D01*
X105830357Y-31465595D01*
X105822122Y-31622892D01*
X105822122Y-32610000D01*
X105494226Y-32610000D01*
X105494226Y-31078108D01*
X105785241Y-31078108D01*
X105785241Y-31233935D01*
X105830005Y-31152890D01*
X105894540Y-31091542D01*
X105973955Y-31052203D01*
X106062579Y-31039030D01*
X106151238Y-31052779D01*
X106231961Y-31094228D01*
X106277508Y-31135028D01*
X106307814Y-31179484D01*
X106324896Y-31228562D01*
G37*
D10*
X60220857Y-52431009D02*
X60363714Y-52478628D01*
X60363714Y-52478628D02*
X60411333Y-52526247D01*
X60411333Y-52526247D02*
X60458952Y-52621485D01*
X60458952Y-52621485D02*
X60458952Y-52764342D01*
X60458952Y-52764342D02*
X60411333Y-52859580D01*
X60411333Y-52859580D02*
X60363714Y-52907200D01*
X60363714Y-52907200D02*
X60268476Y-52954819D01*
X60268476Y-52954819D02*
X59887524Y-52954819D01*
X59887524Y-52954819D02*
X59887524Y-51954819D01*
X59887524Y-51954819D02*
X60220857Y-51954819D01*
X60220857Y-51954819D02*
X60316095Y-52002438D01*
X60316095Y-52002438D02*
X60363714Y-52050057D01*
X60363714Y-52050057D02*
X60411333Y-52145295D01*
X60411333Y-52145295D02*
X60411333Y-52240533D01*
X60411333Y-52240533D02*
X60363714Y-52335771D01*
X60363714Y-52335771D02*
X60316095Y-52383390D01*
X60316095Y-52383390D02*
X60220857Y-52431009D01*
X60220857Y-52431009D02*
X59887524Y-52431009D01*
X61078000Y-51954819D02*
X61268476Y-51954819D01*
X61268476Y-51954819D02*
X61363714Y-52002438D01*
X61363714Y-52002438D02*
X61458952Y-52097676D01*
X61458952Y-52097676D02*
X61506571Y-52288152D01*
X61506571Y-52288152D02*
X61506571Y-52621485D01*
X61506571Y-52621485D02*
X61458952Y-52811961D01*
X61458952Y-52811961D02*
X61363714Y-52907200D01*
X61363714Y-52907200D02*
X61268476Y-52954819D01*
X61268476Y-52954819D02*
X61078000Y-52954819D01*
X61078000Y-52954819D02*
X60982762Y-52907200D01*
X60982762Y-52907200D02*
X60887524Y-52811961D01*
X60887524Y-52811961D02*
X60839905Y-52621485D01*
X60839905Y-52621485D02*
X60839905Y-52288152D01*
X60839905Y-52288152D02*
X60887524Y-52097676D01*
X60887524Y-52097676D02*
X60982762Y-52002438D01*
X60982762Y-52002438D02*
X61078000Y-51954819D01*
X62125619Y-51954819D02*
X62316095Y-51954819D01*
X62316095Y-51954819D02*
X62411333Y-52002438D01*
X62411333Y-52002438D02*
X62506571Y-52097676D01*
X62506571Y-52097676D02*
X62554190Y-52288152D01*
X62554190Y-52288152D02*
X62554190Y-52621485D01*
X62554190Y-52621485D02*
X62506571Y-52811961D01*
X62506571Y-52811961D02*
X62411333Y-52907200D01*
X62411333Y-52907200D02*
X62316095Y-52954819D01*
X62316095Y-52954819D02*
X62125619Y-52954819D01*
X62125619Y-52954819D02*
X62030381Y-52907200D01*
X62030381Y-52907200D02*
X61935143Y-52811961D01*
X61935143Y-52811961D02*
X61887524Y-52621485D01*
X61887524Y-52621485D02*
X61887524Y-52288152D01*
X61887524Y-52288152D02*
X61935143Y-52097676D01*
X61935143Y-52097676D02*
X62030381Y-52002438D01*
X62030381Y-52002438D02*
X62125619Y-51954819D01*
X62839905Y-51954819D02*
X63411333Y-51954819D01*
X63125619Y-52954819D02*
X63125619Y-51954819D01*
X50949819Y-48511904D02*
X51759342Y-48511904D01*
X51759342Y-48511904D02*
X51854580Y-48464285D01*
X51854580Y-48464285D02*
X51902200Y-48416666D01*
X51902200Y-48416666D02*
X51949819Y-48321428D01*
X51949819Y-48321428D02*
X51949819Y-48130952D01*
X51949819Y-48130952D02*
X51902200Y-48035714D01*
X51902200Y-48035714D02*
X51854580Y-47988095D01*
X51854580Y-47988095D02*
X51759342Y-47940476D01*
X51759342Y-47940476D02*
X50949819Y-47940476D01*
X50949819Y-47559523D02*
X50949819Y-46940476D01*
X50949819Y-46940476D02*
X51330771Y-47273809D01*
X51330771Y-47273809D02*
X51330771Y-47130952D01*
X51330771Y-47130952D02*
X51378390Y-47035714D01*
X51378390Y-47035714D02*
X51426009Y-46988095D01*
X51426009Y-46988095D02*
X51521247Y-46940476D01*
X51521247Y-46940476D02*
X51759342Y-46940476D01*
X51759342Y-46940476D02*
X51854580Y-46988095D01*
X51854580Y-46988095D02*
X51902200Y-47035714D01*
X51902200Y-47035714D02*
X51949819Y-47130952D01*
X51949819Y-47130952D02*
X51949819Y-47416666D01*
X51949819Y-47416666D02*
X51902200Y-47511904D01*
X51902200Y-47511904D02*
X51854580Y-47559523D01*
X137418095Y-27384819D02*
X137418095Y-28194342D01*
X137418095Y-28194342D02*
X137465714Y-28289580D01*
X137465714Y-28289580D02*
X137513333Y-28337200D01*
X137513333Y-28337200D02*
X137608571Y-28384819D01*
X137608571Y-28384819D02*
X137799047Y-28384819D01*
X137799047Y-28384819D02*
X137894285Y-28337200D01*
X137894285Y-28337200D02*
X137941904Y-28289580D01*
X137941904Y-28289580D02*
X137989523Y-28194342D01*
X137989523Y-28194342D02*
X137989523Y-27384819D01*
X138989523Y-28384819D02*
X138418095Y-28384819D01*
X138703809Y-28384819D02*
X138703809Y-27384819D01*
X138703809Y-27384819D02*
X138608571Y-27527676D01*
X138608571Y-27527676D02*
X138513333Y-27622914D01*
X138513333Y-27622914D02*
X138418095Y-27670533D01*
X171516667Y-49357200D02*
X171659524Y-49404819D01*
X171659524Y-49404819D02*
X171897619Y-49404819D01*
X171897619Y-49404819D02*
X171992857Y-49357200D01*
X171992857Y-49357200D02*
X172040476Y-49309580D01*
X172040476Y-49309580D02*
X172088095Y-49214342D01*
X172088095Y-49214342D02*
X172088095Y-49119104D01*
X172088095Y-49119104D02*
X172040476Y-49023866D01*
X172040476Y-49023866D02*
X171992857Y-48976247D01*
X171992857Y-48976247D02*
X171897619Y-48928628D01*
X171897619Y-48928628D02*
X171707143Y-48881009D01*
X171707143Y-48881009D02*
X171611905Y-48833390D01*
X171611905Y-48833390D02*
X171564286Y-48785771D01*
X171564286Y-48785771D02*
X171516667Y-48690533D01*
X171516667Y-48690533D02*
X171516667Y-48595295D01*
X171516667Y-48595295D02*
X171564286Y-48500057D01*
X171564286Y-48500057D02*
X171611905Y-48452438D01*
X171611905Y-48452438D02*
X171707143Y-48404819D01*
X171707143Y-48404819D02*
X171945238Y-48404819D01*
X171945238Y-48404819D02*
X172088095Y-48452438D01*
X172421429Y-48404819D02*
X172659524Y-49404819D01*
X172659524Y-49404819D02*
X172850000Y-48690533D01*
X172850000Y-48690533D02*
X173040476Y-49404819D01*
X173040476Y-49404819D02*
X173278572Y-48404819D01*
X173611905Y-48500057D02*
X173659524Y-48452438D01*
X173659524Y-48452438D02*
X173754762Y-48404819D01*
X173754762Y-48404819D02*
X173992857Y-48404819D01*
X173992857Y-48404819D02*
X174088095Y-48452438D01*
X174088095Y-48452438D02*
X174135714Y-48500057D01*
X174135714Y-48500057D02*
X174183333Y-48595295D01*
X174183333Y-48595295D02*
X174183333Y-48690533D01*
X174183333Y-48690533D02*
X174135714Y-48833390D01*
X174135714Y-48833390D02*
X173564286Y-49404819D01*
X173564286Y-49404819D02*
X174183333Y-49404819D01*
D12*
X98290000Y-44450000D02*
X98290000Y-43650000D01*
X98290000Y-44450000D02*
X98290000Y-45250000D01*
X101410000Y-44450000D02*
X101410000Y-43650000D01*
X101410000Y-44450000D02*
X101410000Y-45250000D01*
X98340000Y-45750000D02*
X98010000Y-45990000D01*
X98010000Y-45510000D01*
X98340000Y-45750000D01*
G36*
X98340000Y-45750000D02*
G01*
X98010000Y-45990000D01*
X98010000Y-45510000D01*
X98340000Y-45750000D01*
G37*
X65487258Y-41527500D02*
X65012742Y-41527500D01*
X65487258Y-42572500D02*
X65012742Y-42572500D01*
X96088748Y-37490000D02*
X97511252Y-37490000D01*
X96088748Y-40210000D02*
X97511252Y-40210000D01*
X99500002Y-101150000D02*
X103400002Y-101150000D01*
X99500002Y-104350000D02*
X103400002Y-104350000D01*
X103400002Y-104350000D02*
X103400002Y-101150000D01*
X127888748Y-37490000D02*
X129311252Y-37490000D01*
X127888748Y-40210000D02*
X129311252Y-40210000D01*
X115600000Y-40985000D02*
X115600000Y-46495000D01*
X118900000Y-40985000D02*
X115600000Y-40985000D01*
X118900000Y-40985000D02*
X118900000Y-46495000D01*
X70262746Y-48575000D02*
X70785252Y-48575000D01*
X70262746Y-50045000D02*
X70785252Y-50045000D01*
X128650000Y-48950000D02*
X132650000Y-48950000D01*
X128650000Y-57150000D02*
X132650000Y-57150000D01*
X156900000Y-105850000D02*
X156900000Y-109750000D01*
X156900000Y-109750000D02*
X160100000Y-109750000D01*
X160100000Y-105850000D02*
X160100000Y-109750000D01*
X126200000Y-40985000D02*
X126200000Y-46495000D01*
X129500000Y-40985000D02*
X126200000Y-40985000D01*
X129500000Y-40985000D02*
X129500000Y-46495000D01*
X67377000Y-38280419D02*
X67377000Y-38561581D01*
X68397000Y-38280419D02*
X68397000Y-38561581D01*
X99829998Y-38122936D02*
X99829998Y-39577064D01*
X101649998Y-38122936D02*
X101649998Y-39577064D01*
X123340000Y-44309420D02*
X123340000Y-44590580D01*
X124360000Y-44309420D02*
X124360000Y-44590580D01*
X69700000Y-136150000D02*
X73600000Y-136150000D01*
X69700000Y-139350000D02*
X73600000Y-139350000D01*
X73600000Y-139350000D02*
X73600000Y-136150000D01*
X89240000Y-38122936D02*
X89240000Y-39577064D01*
X91060000Y-38122936D02*
X91060000Y-39577064D01*
X126900000Y-131850000D02*
X126900000Y-135750000D01*
X126900000Y-135750000D02*
X130100000Y-135750000D01*
X130100000Y-131850000D02*
X130100000Y-135750000D01*
X73200000Y-40985000D02*
X73200000Y-46495000D01*
X76500000Y-40985000D02*
X73200000Y-40985000D01*
X76500000Y-40985000D02*
X76500000Y-46495000D01*
X102140000Y-44309420D02*
X102140000Y-44590580D01*
X103160000Y-44309420D02*
X103160000Y-44590580D01*
X59362500Y-40457742D02*
X59362500Y-40932258D01*
X60407500Y-40457742D02*
X60407500Y-40932258D01*
X80940000Y-44309420D02*
X80940000Y-44590580D01*
X81960000Y-44309420D02*
X81960000Y-44590580D01*
X130900000Y-134650000D02*
X130900000Y-130750000D01*
X134100000Y-130750000D02*
X130900000Y-130750000D01*
X134100000Y-134650000D02*
X134100000Y-130750000D01*
X129700000Y-106150000D02*
X133600000Y-106150000D01*
X129700000Y-109350000D02*
X133600000Y-109350000D01*
X133600000Y-109350000D02*
X133600000Y-106150000D01*
X67202258Y-53814500D02*
X66727742Y-53814500D01*
X67202258Y-54859500D02*
X66727742Y-54859500D01*
X60938000Y-40568919D02*
X60938000Y-40850081D01*
X61958000Y-40568919D02*
X61958000Y-40850081D01*
X159500000Y-101150000D02*
X163400000Y-101150000D01*
X159500000Y-104350000D02*
X163400000Y-104350000D01*
X163400000Y-104350000D02*
X163400000Y-101150000D01*
X117288748Y-37490000D02*
X118711252Y-37490000D01*
X117288748Y-40210000D02*
X118711252Y-40210000D01*
X78640000Y-38022936D02*
X78640000Y-39477064D01*
X80460000Y-38022936D02*
X80460000Y-39477064D01*
X61377742Y-55955500D02*
X61852258Y-55955500D01*
X61377742Y-57000500D02*
X61852258Y-57000500D01*
X53590000Y-39749999D02*
X53590000Y-41250001D01*
X55510000Y-39749999D02*
X55510000Y-41250001D01*
X55630000Y-39230000D02*
X55350000Y-39230000D01*
X55350000Y-38950000D01*
X55630000Y-39230000D01*
G36*
X55630000Y-39230000D02*
G01*
X55350000Y-39230000D01*
X55350000Y-38950000D01*
X55630000Y-39230000D01*
G37*
X74888748Y-37490000D02*
X76311252Y-37490000D01*
X74888748Y-40210000D02*
X76311252Y-40210000D01*
X60178000Y-53351000D02*
X62978000Y-53351000D01*
X60178000Y-55351000D02*
X60178000Y-53351000D01*
X62978000Y-53351000D02*
X62978000Y-55351000D01*
X62978000Y-55351000D02*
X60178000Y-55351000D01*
X67184258Y-51358500D02*
X66709742Y-51358500D01*
X67184258Y-52403500D02*
X66709742Y-52403500D01*
X66900000Y-71850000D02*
X66900000Y-75750000D01*
X66900000Y-75750000D02*
X70100000Y-75750000D01*
X70100000Y-71850000D02*
X70100000Y-75750000D01*
X159500000Y-71150000D02*
X163400000Y-71150000D01*
X159500000Y-74350000D02*
X163400000Y-74350000D01*
X163400000Y-74350000D02*
X163400000Y-71150000D01*
X94400000Y-40985000D02*
X94400000Y-46495000D01*
X97700000Y-40985000D02*
X94400000Y-40985000D01*
X97700000Y-40985000D02*
X97700000Y-46495000D01*
X83800000Y-40985000D02*
X83800000Y-46495000D01*
X87100000Y-40985000D02*
X83800000Y-40985000D01*
X87100000Y-40985000D02*
X87100000Y-46495000D01*
X156900000Y-75850000D02*
X156900000Y-79750000D01*
X156900000Y-79750000D02*
X160100000Y-79750000D01*
X160100000Y-75850000D02*
X160100000Y-79750000D01*
X60798000Y-37059500D02*
X60798000Y-39019500D01*
X60798000Y-39019500D02*
X61998000Y-39019500D01*
X61998000Y-37059500D02*
X61998000Y-39019500D01*
X118050000Y-48950000D02*
X122050000Y-48950000D01*
X118050000Y-57150000D02*
X122050000Y-57150000D01*
X127600000Y-76150000D02*
X127600000Y-79350000D01*
X131500000Y-76150000D02*
X127600000Y-76150000D01*
X131500000Y-79350000D02*
X127600000Y-79350000D01*
X80940000Y-38022936D02*
X80940000Y-39477064D01*
X82760000Y-38022936D02*
X82760000Y-39477064D01*
X121040000Y-38122936D02*
X121040000Y-39577064D01*
X122860000Y-38122936D02*
X122860000Y-39577064D01*
X60398420Y-32199000D02*
X60679580Y-32199000D01*
X60398420Y-33219000D02*
X60679580Y-33219000D01*
D13*
X62959600Y-34863600D02*
X64103260Y-34863600D01*
X64103260Y-31358400D02*
X62959600Y-31358400D01*
X65168740Y-34863600D02*
X66312400Y-34863600D01*
X66312400Y-31358400D02*
X65168740Y-31358400D01*
X67464599Y-34086000D02*
G75*
G02*
X67210599Y-34086000I-127000J0D01*
G01*
X67210599Y-34086000D02*
G75*
G02*
X67464599Y-34086000I127000J0D01*
G01*
D12*
X99500001Y-71149999D02*
X103400001Y-71149999D01*
X99500001Y-74349999D02*
X103400001Y-74349999D01*
X103400001Y-74349999D02*
X103400001Y-71149999D01*
X71064581Y-35102000D02*
X70783419Y-35102000D01*
X71064581Y-36122000D02*
X70783419Y-36122000D01*
X133940000Y-38122936D02*
X133940000Y-39577064D01*
X135760000Y-38122936D02*
X135760000Y-39577064D01*
X67202258Y-48794500D02*
X66727742Y-48794500D01*
X67202258Y-49839500D02*
X66727742Y-49839500D01*
X130090000Y-44450000D02*
X130090000Y-43650000D01*
X130090000Y-44450000D02*
X130090000Y-45250000D01*
X133210000Y-44450000D02*
X133210000Y-43650000D01*
X133210000Y-44450000D02*
X133210000Y-45250000D01*
X130140000Y-45750000D02*
X129810000Y-45990000D01*
X129810000Y-45510000D01*
X130140000Y-45750000D01*
G36*
X130140000Y-45750000D02*
G01*
X129810000Y-45990000D01*
X129810000Y-45510000D01*
X130140000Y-45750000D01*
G37*
X131629998Y-38122936D02*
X131629998Y-39577064D01*
X133449998Y-38122936D02*
X133449998Y-39577064D01*
X91540002Y-38122936D02*
X91540002Y-39577064D01*
X93360002Y-38122936D02*
X93360002Y-39577064D01*
X60392420Y-33745000D02*
X60673580Y-33745000D01*
X60392420Y-34765000D02*
X60673580Y-34765000D01*
X100899999Y-78649999D02*
X100899999Y-74749999D01*
X104099999Y-74749999D02*
X100899999Y-74749999D01*
X104099999Y-78649999D02*
X104099999Y-74749999D01*
X112740000Y-44309420D02*
X112740000Y-44590580D01*
X113760000Y-44309420D02*
X113760000Y-44590580D01*
X130900000Y-74650000D02*
X130900000Y-70750000D01*
X134100000Y-70750000D02*
X130900000Y-70750000D01*
X134100000Y-74650000D02*
X134100000Y-70750000D01*
X126900000Y-71850000D02*
X126900000Y-75750000D01*
X126900000Y-75750000D02*
X130100000Y-75750000D01*
X130100000Y-71850000D02*
X130100000Y-75750000D01*
X62775000Y-37225000D02*
X62775000Y-37915000D01*
X62775000Y-40445000D02*
X62775000Y-39755000D01*
X63465000Y-37225000D02*
X62775000Y-37225000D01*
X63465000Y-40445000D02*
X62775000Y-40445000D01*
X65305000Y-37225000D02*
X65995000Y-37225000D01*
X65305000Y-40445000D02*
X65695000Y-40445000D01*
X65995000Y-37225000D02*
X65995000Y-37915000D01*
X65995000Y-39755000D02*
X65995000Y-40205000D01*
X66235000Y-40775000D02*
X65755000Y-40775000D01*
X65995000Y-40445000D01*
X66235000Y-40775000D01*
G36*
X66235000Y-40775000D02*
G01*
X65755000Y-40775000D01*
X65995000Y-40445000D01*
X66235000Y-40775000D01*
G37*
X126900000Y-101850000D02*
X126900000Y-105750000D01*
X126900000Y-105750000D02*
X130100000Y-105750000D01*
X130100000Y-101850000D02*
X130100000Y-105750000D01*
X70900000Y-104650000D02*
X70900000Y-100750000D01*
X74100000Y-100750000D02*
X70900000Y-100750000D01*
X74100000Y-104650000D02*
X74100000Y-100750000D01*
X56184419Y-52415000D02*
X56465581Y-52415000D01*
X56184419Y-53435000D02*
X56465581Y-53435000D01*
X156900002Y-135850000D02*
X156900002Y-139750000D01*
X156900002Y-139750000D02*
X160100002Y-139750000D01*
X160100002Y-135850000D02*
X160100002Y-139750000D01*
X70250747Y-53589000D02*
X70773253Y-53589000D01*
X70250747Y-55059000D02*
X70773253Y-55059000D01*
X70900000Y-74650000D02*
X70900000Y-70750000D01*
X74100000Y-70750000D02*
X70900000Y-70750000D01*
X74100000Y-74650000D02*
X74100000Y-70750000D01*
X91540000Y-44309420D02*
X91540000Y-44590580D01*
X92560000Y-44309420D02*
X92560000Y-44590580D01*
X57051000Y-54804000D02*
X57686000Y-54804000D01*
X57686000Y-54804000D02*
X57686000Y-55439000D01*
X96900002Y-135850000D02*
X96900002Y-139750000D01*
X96900002Y-139750000D02*
X100100002Y-139750000D01*
X100100002Y-135850000D02*
X100100002Y-139750000D01*
X67600000Y-76150000D02*
X67600000Y-79350000D01*
X71500000Y-76150000D02*
X67600000Y-76150000D01*
X71500000Y-79350000D02*
X67600000Y-79350000D01*
X112740000Y-38022936D02*
X112740000Y-39477064D01*
X114560000Y-38022936D02*
X114560000Y-39477064D01*
X107450000Y-48950000D02*
X111450000Y-48950000D01*
X107450000Y-57150000D02*
X111450000Y-57150000D01*
X69700000Y-106150000D02*
X73600000Y-106150000D01*
X69700000Y-109350000D02*
X73600000Y-109350000D01*
X73600000Y-109350000D02*
X73600000Y-106150000D01*
X52715000Y-44140000D02*
X53190000Y-44140000D01*
X52715000Y-44615000D02*
X52715000Y-44140000D01*
X52715000Y-50885000D02*
X52715000Y-51060000D01*
X53190000Y-51360000D02*
X52955000Y-51360000D01*
X59935000Y-44140000D02*
X59460000Y-44140000D01*
X59935000Y-44615000D02*
X59935000Y-44140000D01*
X59935000Y-50885000D02*
X59935000Y-51360000D01*
X59935000Y-51360000D02*
X59460000Y-51360000D01*
X52715000Y-51360000D02*
X52385000Y-51600000D01*
X52385000Y-51120000D01*
X52715000Y-51360000D01*
G36*
X52715000Y-51360000D02*
G01*
X52385000Y-51600000D01*
X52385000Y-51120000D01*
X52715000Y-51360000D01*
G37*
X105000000Y-40985000D02*
X105000000Y-46495000D01*
X108300000Y-40985000D02*
X105000000Y-40985000D01*
X108300000Y-40985000D02*
X108300000Y-46495000D01*
X75650000Y-48950000D02*
X79650000Y-48950000D01*
X75650000Y-57150000D02*
X79650000Y-57150000D01*
X77090000Y-44450000D02*
X77090000Y-43650000D01*
X77090000Y-44450000D02*
X77090000Y-45250000D01*
X80210000Y-44450000D02*
X80210000Y-43650000D01*
X80210000Y-44450000D02*
X80210000Y-45250000D01*
X77140000Y-45750000D02*
X76810000Y-45990000D01*
X76810000Y-45510000D01*
X77140000Y-45750000D01*
G36*
X77140000Y-45750000D02*
G01*
X76810000Y-45990000D01*
X76810000Y-45510000D01*
X77140000Y-45750000D01*
G37*
X129700000Y-136150000D02*
X133600000Y-136150000D01*
X129700000Y-139350000D02*
X133600000Y-139350000D01*
X133600000Y-139350000D02*
X133600000Y-136150000D01*
X85488748Y-37490000D02*
X86911252Y-37490000D01*
X85488748Y-40210000D02*
X86911252Y-40210000D01*
X61315000Y-28338747D02*
X61315000Y-28861253D01*
X62785000Y-28338747D02*
X62785000Y-28861253D01*
X96850000Y-48950000D02*
X100850000Y-48950000D01*
X96850000Y-57150000D02*
X100850000Y-57150000D01*
X119490000Y-44450000D02*
X119490000Y-43650000D01*
X119490000Y-44450000D02*
X119490000Y-45250000D01*
X122610000Y-44450000D02*
X122610000Y-43650000D01*
X122610000Y-44450000D02*
X122610000Y-45250000D01*
X119540000Y-45750000D02*
X119210000Y-45990000D01*
X119210000Y-45510000D01*
X119540000Y-45750000D01*
G36*
X119540000Y-45750000D02*
G01*
X119210000Y-45990000D01*
X119210000Y-45510000D01*
X119540000Y-45750000D01*
G37*
X108890000Y-44450000D02*
X108890000Y-43650000D01*
X108890000Y-44450000D02*
X108890000Y-45250000D01*
X112010000Y-44450000D02*
X112010000Y-43650000D01*
X112010000Y-44450000D02*
X112010000Y-45250000D01*
X108940000Y-45750000D02*
X108610000Y-45990000D01*
X108610000Y-45510000D01*
X108940000Y-45750000D01*
G36*
X108940000Y-45750000D02*
G01*
X108610000Y-45990000D01*
X108610000Y-45510000D01*
X108940000Y-45750000D01*
G37*
X96900002Y-105850000D02*
X96900002Y-109750000D01*
X96900002Y-109750000D02*
X100100002Y-109750000D01*
X100100002Y-105850000D02*
X100100002Y-109750000D01*
X100900000Y-138650000D02*
X100900000Y-134750000D01*
X104100000Y-134750000D02*
X100900000Y-134750000D01*
X104100000Y-138650000D02*
X104100000Y-134750000D01*
D10*
X118680000Y-34810000D02*
X157680000Y-34810000D01*
X157680000Y-22310000D01*
X118680000Y-22310000D01*
X118680000Y-34810000D01*
D12*
X130900000Y-104650000D02*
X130900000Y-100750000D01*
X134100000Y-100750000D02*
X130900000Y-100750000D01*
X134100000Y-104650000D02*
X134100000Y-100750000D01*
X66393258Y-46272500D02*
X65918742Y-46272500D01*
X66393258Y-47317500D02*
X65918742Y-47317500D01*
X160900000Y-108650000D02*
X160900000Y-104750000D01*
X164100000Y-104750000D02*
X160900000Y-104750000D01*
X164100000Y-108650000D02*
X164100000Y-104750000D01*
X59362500Y-37407742D02*
X59362500Y-37882258D01*
X60407500Y-37407742D02*
X60407500Y-37882258D01*
X70262746Y-51146000D02*
X70785252Y-51146000D01*
X70262746Y-52616000D02*
X70785252Y-52616000D01*
X59440000Y-28750000D02*
X59440000Y-30210000D01*
X59440000Y-30210000D02*
X60760000Y-30210000D01*
X60760000Y-30210000D02*
X60760000Y-28750000D01*
X87690000Y-44450000D02*
X87690000Y-43650000D01*
X87690000Y-44450000D02*
X87690000Y-45250000D01*
X90810000Y-44450000D02*
X90810000Y-43650000D01*
X90810000Y-44450000D02*
X90810000Y-45250000D01*
X87740000Y-45750000D02*
X87410000Y-45990000D01*
X87410000Y-45510000D01*
X87740000Y-45750000D01*
G36*
X87740000Y-45750000D02*
G01*
X87410000Y-45990000D01*
X87410000Y-45510000D01*
X87740000Y-45750000D01*
G37*
X63277500Y-46262258D02*
X63277500Y-45787742D01*
X64322500Y-46262258D02*
X64322500Y-45787742D01*
X68940000Y-38687500D02*
X68940000Y-37887500D01*
X68940000Y-38687500D02*
X68940000Y-39487500D01*
X72060000Y-38687500D02*
X72060000Y-37887500D01*
X72060000Y-38687500D02*
X72060000Y-39487500D01*
X72340000Y-37627500D02*
X72010000Y-37387500D01*
X72340000Y-37147500D01*
X72340000Y-37627500D01*
G36*
X72340000Y-37627500D02*
G01*
X72010000Y-37387500D01*
X72340000Y-37147500D01*
X72340000Y-37627500D01*
G37*
X99500002Y-131150000D02*
X103400002Y-131150000D01*
X99500002Y-134350000D02*
X103400002Y-134350000D01*
X103400002Y-134350000D02*
X103400002Y-131150000D01*
X102140000Y-38122936D02*
X102140000Y-39577064D01*
X103960000Y-38122936D02*
X103960000Y-39577064D01*
X159500001Y-131150000D02*
X163400001Y-131150000D01*
X159500001Y-134350000D02*
X163400001Y-134350000D01*
X163400001Y-134350000D02*
X163400001Y-131150000D01*
X110440000Y-38022936D02*
X110440000Y-39477064D01*
X112260000Y-38022936D02*
X112260000Y-39477064D01*
X162700000Y-38250000D02*
X166800000Y-38250000D01*
X162700000Y-40650000D02*
X162700000Y-38250000D01*
X162700000Y-45450000D02*
X162700000Y-42850000D01*
X162700000Y-50050000D02*
X162700000Y-47650000D01*
X166800000Y-50050000D02*
X162700000Y-50050000D01*
X168800000Y-44650000D02*
X168800000Y-43650000D01*
X169300000Y-44150000D02*
X168300000Y-44150000D01*
X170800000Y-38250000D02*
X174900000Y-38250000D01*
X170800000Y-50050000D02*
X174900000Y-50050000D01*
X174900000Y-50050000D02*
X174900000Y-38250000D01*
X176000000Y-48250000D02*
X176300000Y-47950000D01*
X176300000Y-47950000D02*
X176600000Y-48250000D01*
X176600000Y-48250000D02*
X176000000Y-48250000D01*
X171800000Y-44150000D02*
G75*
G02*
X165800000Y-44150000I-3000000J0D01*
G01*
X165800000Y-44150000D02*
G75*
G02*
X171800000Y-44150000I3000000J0D01*
G01*
X160900000Y-138650000D02*
X160900000Y-134750000D01*
X164100000Y-134750000D02*
X160900000Y-134750000D01*
X164100000Y-138650000D02*
X164100000Y-134750000D01*
X106688748Y-37490000D02*
X108111252Y-37490000D01*
X106688748Y-40210000D02*
X108111252Y-40210000D01*
X123340002Y-38122936D02*
X123340002Y-39577064D01*
X125160002Y-38122936D02*
X125160002Y-39577064D01*
X66900000Y-101850000D02*
X66900000Y-105750000D01*
X66900000Y-105750000D02*
X70100000Y-105750000D01*
X70100000Y-101850000D02*
X70100000Y-105750000D01*
X133940000Y-44309420D02*
X133940000Y-44590580D01*
X134960000Y-44309420D02*
X134960000Y-44590580D01*
X100900000Y-108650000D02*
X100900000Y-104750000D01*
X104100000Y-104750000D02*
X100900000Y-104750000D01*
X104100000Y-108650000D02*
X104100000Y-104750000D01*
X96900001Y-75849999D02*
X96900001Y-79749999D01*
X96900001Y-79749999D02*
X100100001Y-79749999D01*
X100100001Y-75849999D02*
X100100001Y-79749999D01*
X53850000Y-28580000D02*
X55450000Y-28580000D01*
X53850000Y-37920000D02*
X55450000Y-37920000D01*
X70900000Y-134650000D02*
X70900000Y-130750000D01*
X74100000Y-130750000D02*
X70900000Y-130750000D01*
X74100000Y-134650000D02*
X74100000Y-130750000D01*
X160900000Y-78650000D02*
X160900000Y-74750000D01*
X164100000Y-74750000D02*
X160900000Y-74750000D01*
X164100000Y-78650000D02*
X164100000Y-74750000D01*
X66900000Y-131850000D02*
X66900000Y-135750000D01*
X66900000Y-135750000D02*
X70100000Y-135750000D01*
X70100000Y-131850000D02*
X70100000Y-135750000D01*
X86250000Y-48950000D02*
X90250000Y-48950000D01*
X86250000Y-57150000D02*
X90250000Y-57150000D01*
%LPC*%
D14*
X175400000Y-59250000D02*
X180500000Y-59250000D01*
X180500000Y-151250000D01*
X175400000Y-151250000D01*
X175400000Y-59250000D01*
G36*
X175400000Y-59250000D02*
G01*
X180500000Y-59250000D01*
X180500000Y-151250000D01*
X175400000Y-151250000D01*
X175400000Y-59250000D01*
G37*
X50500000Y-59250000D02*
X55600000Y-59250000D01*
X55600000Y-151250000D01*
X50500000Y-151250000D01*
X50500000Y-59250000D01*
G36*
X50500000Y-59250000D02*
G01*
X55600000Y-59250000D01*
X55600000Y-151250000D01*
X50500000Y-151250000D01*
X50500000Y-59250000D01*
G37*
X55600000Y-150250000D02*
X175500000Y-150250000D01*
X175500000Y-151250000D01*
X55600000Y-151250000D01*
X55600000Y-150250000D01*
G36*
X55600000Y-150250000D02*
G01*
X175500000Y-150250000D01*
X175500000Y-151250000D01*
X55600000Y-151250000D01*
X55600000Y-150250000D01*
G37*
D15*
X179287500Y-61750000D02*
G75*
G02*
X176712500Y-61750000I-1287500J0D01*
G01*
X176712500Y-61750000D02*
G75*
G02*
X179287500Y-61750000I1287500J0D01*
G01*
X54287500Y-61750000D02*
G75*
G02*
X51712500Y-61750000I-1287500J0D01*
G01*
X51712500Y-61750000D02*
G75*
G02*
X54287500Y-61750000I1287500J0D01*
G01*
X54287500Y-23750000D02*
G75*
G02*
X51712500Y-23750000I-1287500J0D01*
G01*
X51712500Y-23750000D02*
G75*
G02*
X54287500Y-23750000I1287500J0D01*
G01*
G36*
X60353000Y-53601000D02*
G01*
X62803000Y-53601000D01*
X62803000Y-55101000D01*
X60353000Y-55101000D01*
X60353000Y-53601000D01*
G37*
X179287500Y-148750000D02*
G75*
G02*
X176712500Y-148750000I-1287500J0D01*
G01*
X176712500Y-148750000D02*
G75*
G02*
X179287500Y-148750000I1287500J0D01*
G01*
X54287500Y-148750000D02*
G75*
G02*
X51712500Y-148750000I-1287500J0D01*
G01*
X51712500Y-148750000D02*
G75*
G02*
X54287500Y-148750000I1287500J0D01*
G01*
X179287500Y-23750000D02*
G75*
G02*
X176712500Y-23750000I-1287500J0D01*
G01*
X176712500Y-23750000D02*
G75*
G02*
X179287500Y-23750000I1287500J0D01*
G01*
D16*
X98900000Y-45587500D03*
X99850000Y-45587500D03*
X100800000Y-45587500D03*
X100800000Y-43312500D03*
X98900000Y-43312500D03*
D17*
X66075000Y-42050000D03*
X64425000Y-42050000D03*
D18*
X95324999Y-38850000D03*
X98275001Y-38850000D03*
D19*
X101950002Y-102750000D03*
D20*
X99375002Y-102750000D03*
D18*
X127124999Y-38850000D03*
X130075001Y-38850000D03*
D21*
X117250000Y-42495000D03*
X117250000Y-46495000D03*
D22*
X69574000Y-49310000D03*
X71473998Y-49310000D03*
D23*
X133475000Y-53050000D03*
X127825000Y-53050000D03*
D24*
X158500000Y-105725000D03*
D25*
X158500000Y-108300000D03*
D21*
X127850000Y-42495000D03*
X127850000Y-46495000D03*
D26*
X67887000Y-37646000D03*
X67887000Y-39196000D03*
D27*
X100739998Y-37387500D03*
X100739998Y-40312500D03*
D28*
X178000000Y-61750000D03*
D26*
X123850000Y-43675000D03*
X123850000Y-45225000D03*
D19*
X72150000Y-137750000D03*
D20*
X69575000Y-137750000D03*
D27*
X90150000Y-37387500D03*
X90150000Y-40312500D03*
D25*
X128500000Y-134300000D03*
D24*
X128500000Y-131725000D03*
D21*
X74850000Y-42495000D03*
X74850000Y-46495000D03*
D26*
X102650000Y-43675000D03*
X102650000Y-45225000D03*
D29*
X59885000Y-39870000D03*
X59885000Y-41520000D03*
D26*
X81450000Y-43675000D03*
X81450000Y-45225000D03*
D24*
X132500000Y-134775000D03*
D25*
X132500000Y-132200000D03*
D19*
X132150000Y-107750000D03*
D20*
X129575000Y-107750000D03*
D17*
X67790000Y-54337000D03*
X66140000Y-54337000D03*
D26*
X61448000Y-39934500D03*
X61448000Y-41484500D03*
D19*
X161950000Y-102750000D03*
D20*
X159375000Y-102750000D03*
D18*
X116524999Y-38850000D03*
X119475001Y-38850000D03*
D27*
X79550000Y-37287500D03*
X79550000Y-40212500D03*
D30*
X60790000Y-56478000D03*
X62440000Y-56478000D03*
D28*
X53000000Y-61750000D03*
D31*
X55049999Y-39812500D03*
X54550000Y-39812500D03*
X54050001Y-39812500D03*
X54050001Y-41187500D03*
X54550000Y-41187500D03*
X55049999Y-41187500D03*
D18*
X74124999Y-38850000D03*
X77075001Y-38850000D03*
D28*
X53000000Y-23750000D03*
D32*
X60853000Y-54351000D03*
D33*
X62303000Y-54351000D03*
D17*
X67772000Y-51881000D03*
X66122000Y-51881000D03*
D25*
X68500000Y-74300000D03*
D24*
X68500000Y-71725000D03*
D19*
X161950000Y-72750000D03*
D20*
X159375000Y-72750000D03*
D21*
X96050000Y-42495000D03*
X96050000Y-46495000D03*
X85450000Y-42495000D03*
X85450000Y-46495000D03*
D24*
X158500000Y-75725000D03*
D25*
X158500000Y-78300000D03*
D34*
X61398000Y-38459500D03*
X61398000Y-37059500D03*
D23*
X122875000Y-53050000D03*
X117225000Y-53050000D03*
D19*
X129050000Y-77750000D03*
D20*
X131625000Y-77750000D03*
D27*
X81850000Y-37287500D03*
X81850000Y-40212500D03*
D28*
X178000000Y-148750000D03*
D27*
X121950000Y-37387500D03*
X121950000Y-40312500D03*
D35*
X59764000Y-32709000D03*
X61314000Y-32709000D03*
D36*
X66160998Y-34085999D03*
X66160998Y-33436001D03*
X66160998Y-32785999D03*
X66160998Y-32136001D03*
D37*
X63111002Y-32136001D03*
D38*
X63111002Y-32785999D03*
X63111002Y-33436001D03*
X63111002Y-34085999D03*
D19*
X101950001Y-72749999D03*
D20*
X99375001Y-72749999D03*
D39*
X71699000Y-35612000D03*
X70149000Y-35612000D03*
D27*
X134850000Y-37387500D03*
X134850000Y-40312500D03*
D17*
X67790000Y-49317000D03*
X66140000Y-49317000D03*
D16*
X130700000Y-45587500D03*
X131650000Y-45587500D03*
X132600000Y-45587500D03*
X132600000Y-43312500D03*
X130700000Y-43312500D03*
D27*
X132539998Y-37387500D03*
X132539998Y-40312500D03*
X92450002Y-37387500D03*
X92450002Y-40312500D03*
D35*
X59758000Y-34255000D03*
X61308000Y-34255000D03*
D25*
X102499999Y-76199999D03*
D24*
X102499999Y-78774999D03*
D26*
X113250000Y-43675000D03*
X113250000Y-45225000D03*
D24*
X132500000Y-74775000D03*
D25*
X132500000Y-72200000D03*
X128500000Y-74300000D03*
D24*
X128500000Y-71725000D03*
D40*
X65922500Y-39335000D03*
X65922500Y-38835000D03*
X65922500Y-38335000D03*
D41*
X64885000Y-37297500D03*
X64385000Y-37297500D03*
X63885000Y-37297500D03*
D40*
X62847500Y-38335000D03*
X62847500Y-38835000D03*
X62847500Y-39335000D03*
D41*
X63885000Y-40372500D03*
X64385000Y-40372500D03*
X64885000Y-40372500D03*
D42*
X64385000Y-38835000D03*
D25*
X128500000Y-104300000D03*
D24*
X128500000Y-101725000D03*
X72500000Y-104775000D03*
D25*
X72500000Y-102200000D03*
D35*
X55550000Y-52925000D03*
X57100000Y-52925000D03*
D24*
X158500002Y-135725000D03*
D25*
X158500002Y-138300000D03*
D22*
X69562001Y-54324000D03*
X71461999Y-54324000D03*
D24*
X72500000Y-74775000D03*
D25*
X72500000Y-72200000D03*
D26*
X92050000Y-43675000D03*
X92050000Y-45225000D03*
D43*
X58321000Y-56074000D03*
X53241000Y-57090000D03*
X53241000Y-55058000D03*
D44*
X57051000Y-55439000D03*
X57051000Y-56709000D03*
X55781000Y-55439000D03*
X55781000Y-56709000D03*
X54511000Y-55439000D03*
X54511000Y-56709000D03*
D24*
X98500002Y-135725000D03*
D25*
X98500002Y-138300000D03*
D19*
X69050000Y-77750000D03*
D20*
X71625000Y-77750000D03*
D27*
X113650000Y-37287500D03*
X113650000Y-40212500D03*
D28*
X53000000Y-148750000D03*
D23*
X112275000Y-53050000D03*
X106625000Y-53050000D03*
D19*
X72150000Y-107750000D03*
D20*
X69575000Y-107750000D03*
D45*
X53575000Y-51187500D03*
X54075000Y-51187500D03*
X54575001Y-51187500D03*
X55075000Y-51187500D03*
X55574999Y-51187500D03*
X56075000Y-51187500D03*
X56575000Y-51187500D03*
X57075001Y-51187500D03*
X57575000Y-51187500D03*
X58074999Y-51187500D03*
X58575000Y-51187500D03*
X59075000Y-51187500D03*
D46*
X59762500Y-50500000D03*
X59762500Y-50000000D03*
X59762500Y-49499999D03*
X59762500Y-49000000D03*
X59762500Y-48500001D03*
X59762500Y-48000000D03*
X59762500Y-47500000D03*
X59762500Y-46999999D03*
X59762500Y-46500000D03*
X59762500Y-46000001D03*
X59762500Y-45500000D03*
X59762500Y-45000000D03*
D45*
X59075000Y-44312500D03*
X58575000Y-44312500D03*
X58074999Y-44312500D03*
X57575000Y-44312500D03*
X57075001Y-44312500D03*
X56575000Y-44312500D03*
X56075000Y-44312500D03*
X55574999Y-44312500D03*
X55075000Y-44312500D03*
X54575001Y-44312500D03*
X54075000Y-44312500D03*
X53575000Y-44312500D03*
D46*
X52887500Y-45000000D03*
X52887500Y-45500000D03*
X52887500Y-46000001D03*
X52887500Y-46500000D03*
X52887500Y-46999999D03*
X52887500Y-47500000D03*
X52887500Y-48000000D03*
X52887500Y-48500001D03*
X52887500Y-49000000D03*
X52887500Y-49499999D03*
X52887500Y-50000000D03*
X52887500Y-50500000D03*
D47*
X56325000Y-47750000D03*
D21*
X106650000Y-42495000D03*
X106650000Y-46495000D03*
D23*
X80475000Y-53050000D03*
X74825000Y-53050000D03*
D16*
X77700000Y-45587500D03*
X78650000Y-45587500D03*
X79600000Y-45587500D03*
X79600000Y-43312500D03*
X77700000Y-43312500D03*
D19*
X132150000Y-137750000D03*
D20*
X129575000Y-137750000D03*
D18*
X84724999Y-38850000D03*
X87675001Y-38850000D03*
D48*
X62050000Y-27650001D03*
X62050000Y-29549999D03*
D23*
X101675000Y-53050000D03*
X96025000Y-53050000D03*
D16*
X120100000Y-45587500D03*
X121050000Y-45587500D03*
X122000000Y-45587500D03*
X122000000Y-43312500D03*
X120100000Y-43312500D03*
X109500000Y-45587500D03*
X110450000Y-45587500D03*
X111400000Y-45587500D03*
X111400000Y-43312500D03*
X109500000Y-43312500D03*
D24*
X98500002Y-105725000D03*
D25*
X98500002Y-108300000D03*
X102500000Y-136200000D03*
D24*
X102500000Y-138775000D03*
D49*
X119950000Y-32270000D03*
X119950000Y-29730000D03*
X119950000Y-27190000D03*
X119950000Y-24650000D03*
D24*
X132500000Y-104775000D03*
D25*
X132500000Y-102200000D03*
D17*
X66981000Y-46795000D03*
X65331000Y-46795000D03*
D25*
X162500000Y-106200000D03*
D24*
X162500000Y-108775000D03*
D29*
X59885000Y-36820000D03*
X59885000Y-38470000D03*
D22*
X69574000Y-51881000D03*
X71473998Y-51881000D03*
D50*
X60100000Y-29775000D03*
X60100000Y-28725000D03*
D16*
X88300000Y-45587500D03*
X89250000Y-45587500D03*
X90200000Y-45587500D03*
X90200000Y-43312500D03*
X88300000Y-43312500D03*
D51*
X63800000Y-46850000D03*
X63800000Y-45200000D03*
D52*
X71450000Y-37550000D03*
X70500000Y-37550000D03*
X69550000Y-37550000D03*
X69550000Y-39825000D03*
X71450000Y-39825000D03*
D19*
X101950002Y-132750000D03*
D20*
X99375002Y-132750000D03*
D27*
X103050000Y-37387500D03*
X103050000Y-40312500D03*
D19*
X161950001Y-132750000D03*
D20*
X159375001Y-132750000D03*
D27*
X111350000Y-37287500D03*
X111350000Y-40212500D03*
D53*
X176300000Y-46650000D03*
D54*
X176300000Y-41650000D03*
X176300000Y-44150000D03*
D55*
X168800000Y-49750000D03*
X168800000Y-38550000D03*
D54*
X161800000Y-41650000D03*
X161800000Y-46650000D03*
D25*
X162500000Y-136200000D03*
D24*
X162500000Y-138775000D03*
D18*
X105924999Y-38850000D03*
X108875001Y-38850000D03*
D27*
X124250002Y-37387500D03*
X124250002Y-40312500D03*
D25*
X68500000Y-104300000D03*
D24*
X68500000Y-101725000D03*
D26*
X134450000Y-43675000D03*
X134450000Y-45225000D03*
D25*
X102500000Y-106200000D03*
D24*
X102500000Y-108775000D03*
D28*
X178000000Y-23750000D03*
D24*
X98500001Y-75724999D03*
D25*
X98500001Y-78299999D03*
D56*
X57125000Y-30050000D03*
X57125000Y-30850000D03*
D57*
X57125000Y-32000000D03*
X57125000Y-33000000D03*
X57125000Y-33500000D03*
X57125000Y-34500000D03*
D56*
X57125000Y-35650000D03*
X57125000Y-36450000D03*
X57125000Y-36450000D03*
X57125000Y-35650000D03*
D57*
X57125000Y-35000000D03*
X57125000Y-34000000D03*
X57125000Y-32500000D03*
X57125000Y-31500000D03*
D56*
X57125000Y-30850000D03*
X57125000Y-30050000D03*
D58*
X56550000Y-28930000D03*
D59*
X52550000Y-28930000D03*
D58*
X56550000Y-37570000D03*
D59*
X52550000Y-37570000D03*
D24*
X72500000Y-134775000D03*
D25*
X72500000Y-132200000D03*
X162500000Y-76200000D03*
D24*
X162500000Y-78775000D03*
D25*
X68500000Y-134300000D03*
D24*
X68500000Y-131725000D03*
D23*
X91075000Y-53050000D03*
X85425000Y-53050000D03*
%LPD*%
M02*
